<svg xmlns="http://www.w3.org/2000/svg" width="18.3" height="19.996" viewBox="0 0 18.3 19.996">
  <path id="Union_43" data-name="Union 43" d="M7.337,19.517,1.809,16.325A3.636,3.636,0,0,1,0,13.181V6.818a3.66,3.66,0,0,1,1.805-3.14h0L7.335.484a3.642,3.642,0,0,1,3.625,0l5.529,3.192A3.66,3.66,0,0,1,18.3,6.818v6.363a3.66,3.66,0,0,1-1.805,3.141h0l-5.526,3.191a3.641,3.641,0,0,1-3.626,0ZM8.032,1.693,2.51,4.882A2.261,2.261,0,0,0,1.4,6.818v6.363a2.237,2.237,0,0,0,1.111,1.936l5.526,3.191a2.257,2.257,0,0,0,1.119.3,2.23,2.23,0,0,0,1.113-.3l5.523-3.189A2.261,2.261,0,0,0,16.9,13.181V6.818a2.231,2.231,0,0,0-1.114-1.936L10.265,1.693a2.259,2.259,0,0,0-1.119-.3A2.224,2.224,0,0,0,8.032,1.693ZM8.223,14v-.093a.931.931,0,0,1,1.861,0V14a.931.931,0,1,1-1.861,0Zm.233-3.069V6.046a.7.7,0,1,1,1.4,0V10.93a.7.7,0,0,1-1.4,0Z" transform="translate(0 -0.001)" fill="#091f40"/>
</svg>
