<svg xmlns="http://www.w3.org/2000/svg" width="20.862" height="22.854" viewBox="0 0 20.862 22.854">
  <g id="Group_11271" data-name="Group 11271" transform="translate(-51.069 -262.073)">
    <path id="Path_2469" data-name="Path 2469" d="M2060.826-12365.049a3.8,3.8,0,0,1-2.3-2.167l-.006-.013a2.368,2.368,0,0,0-2.478-1.431,3.793,3.793,0,0,1-3.836-1.9,3.851,3.851,0,0,1-.528-1.968,3.831,3.831,0,0,1,.8-2.3,2.353,2.353,0,0,0,.483-1.431,2.343,2.343,0,0,0-.483-1.429l-.006-.013a3.8,3.8,0,0,1-.8-2.364,3.839,3.839,0,0,1,.075-.711,3.92,3.92,0,0,1,1.872-2.62,3.811,3.811,0,0,1,2.4-.47l.056.006a2.323,2.323,0,0,0,1.474-.3,2.344,2.344,0,0,0,.995-1.126l.022-.053a3.807,3.807,0,0,1,1.611-1.847,3.909,3.909,0,0,1,3.2-.311,3.79,3.79,0,0,1,2.3,2.167l.006.012a2.363,2.363,0,0,0,2.478,1.431,3.793,3.793,0,0,1,3.836,1.894,3.864,3.864,0,0,1,.528,1.971,3.832,3.832,0,0,1-.8,2.3,2.353,2.353,0,0,0-.483,1.432,2.357,2.357,0,0,0,.483,1.432l.006.009a3.8,3.8,0,0,1,.8,2.364,3.809,3.809,0,0,1-.075.711,3.905,3.905,0,0,1-1.872,2.617,3.821,3.821,0,0,1-2.4.477l-.056-.01a2.318,2.318,0,0,0-1.474.3,2.339,2.339,0,0,0-.995,1.125l-.022.053a3.8,3.8,0,0,1-1.61,1.847,3.891,3.891,0,0,1-1.943.518A3.939,3.939,0,0,1,2060.826-12365.049Zm-.923-2.758.006.012a2.293,2.293,0,0,0,1.4,1.321,2.422,2.422,0,0,0,1.971-.187,2.313,2.313,0,0,0,.976-1.128l.025-.053a3.787,3.787,0,0,1,1.626-1.844,3.817,3.817,0,0,1,2.409-.488l.059.01a2.347,2.347,0,0,0,1.464-.283,2.437,2.437,0,0,0,1.147-1.617,2.275,2.275,0,0,0,.046-.43,2.31,2.31,0,0,0-.491-1.438l-.009-.009a3.862,3.862,0,0,1-.788-2.343,3.86,3.86,0,0,1,.791-2.343,2.289,2.289,0,0,0,.492-1.4,2.407,2.407,0,0,0-.324-1.205,2.321,2.321,0,0,0-2.344-1.159,3.862,3.862,0,0,1-4.054-2.339l-.006-.012a2.314,2.314,0,0,0-1.4-1.324,2.437,2.437,0,0,0-1.971.189,2.307,2.307,0,0,0-.976,1.128l-.025.053a3.8,3.8,0,0,1-1.626,1.844,3.817,3.817,0,0,1-2.409.488l-.059-.009a2.321,2.321,0,0,0-1.464.282,2.437,2.437,0,0,0-1.147,1.614,2.275,2.275,0,0,0-.046.432,2.314,2.314,0,0,0,.491,1.439l.009.013a3.848,3.848,0,0,1,.788,2.34,3.858,3.858,0,0,1-.791,2.342,2.288,2.288,0,0,0-.492,1.4,2.4,2.4,0,0,0,.324,1.205,2.322,2.322,0,0,0,2.344,1.16,3.866,3.866,0,0,1,.5-.032A3.86,3.86,0,0,1,2059.9-12367.807Z" transform="translate(-2000.604 12649.77)" fill="#8a8aa1"/>
    <path id="Ellipse_87" data-name="Ellipse 87" d="M4.5,1.5a3,3,0,1,0,3,3,3,3,0,0,0-3-3M4.5,0A4.5,4.5,0,1,1,0,4.5,4.5,4.5,0,0,1,4.5,0Z" transform="translate(57 269)" fill="#8a8aa1"/>
  </g>
</svg>
