<svg xmlns="http://www.w3.org/2000/svg" xmlns:xlink="http://www.w3.org/1999/xlink" width="154" height="94" viewBox="0 0 154 94" version="1.1">
    <!-- Generator: Sketch 60 (88103) - https://sketch.com -->
    <title>nodejs</title>
    <desc>Created with Sketch.</desc>
    <defs>
        <linearGradient x1="63.7169061%" y1="17.4868311%" x2="33.2748707%" y2="89.7551419%" id="linearGradient-1">
            <stop stop-color="#41873F" offset="0%"/>
            <stop stop-color="#418B3D" offset="32.88%"/>
            <stop stop-color="#419637" offset="63.52%"/>
            <stop stop-color="#3FA92D" offset="93.19%"/>
            <stop stop-color="#3FAE2A" offset="100%"/>
        </linearGradient>
        <linearGradient x1="68.1884411%" y1="17.4868311%" x2="27.8226935%" y2="89.7551419%" id="linearGradient-2">
            <stop stop-color="#41873F" offset="0%"/>
            <stop stop-color="#418B3D" offset="32.88%"/>
            <stop stop-color="#419637" offset="63.52%"/>
            <stop stop-color="#3FA92D" offset="93.19%"/>
            <stop stop-color="#3FAE2A" offset="100%"/>
        </linearGradient>
        <path d="M17.3710158,0.254762979 C16.8162528,-0.0572911965 16.1574718,-0.0572911965 15.6027088,0.254762979 L1.0055079,8.68022574 C0.450744921,8.99227992 0.138690745,9.58171557 0.138690745,10.2058239 L0.138690745,27.0914221 C0.138690745,27.7155305 0.485417607,28.3049661 1.0055079,28.6170203 L15.6027088,37.0424832 C16.1574718,37.3545372 16.8162528,37.3545372 17.3710158,37.0424832 L31.9682166,28.6170203 C32.5229796,28.3049661 32.8350339,27.7155305 32.8350339,27.0914221 L32.8350339,10.2058239 C32.8350339,9.58171557 32.4883071,8.99227992 31.9682166,8.68022574 L17.3710158,0.254762979 L17.3710158,0.254762979 Z" id="path-3"/>
        <linearGradient x1="43.2765472%" y1="55.168777%" x2="159.245277%" y2="-18.3061379%" id="linearGradient-5">
            <stop stop-color="#41873F" offset="13.76%"/>
            <stop stop-color="#54A044" offset="40.32%"/>
            <stop stop-color="#66B848" offset="71.36%"/>
            <stop stop-color="#6CC04A" offset="90.81%"/>
        </linearGradient>
        <path d="M17.3710158,0.254762979 C16.8162528,-0.0572911965 16.1574718,-0.0572911965 15.6027088,0.254762979 L1.0055079,8.68022574 C0.450744921,8.99227992 0.138690745,9.58171557 0.138690745,10.2058239 L0.138690745,27.0914221 C0.138690745,27.7155305 0.485417607,28.3049661 1.0055079,28.6170203 L15.6027088,37.0424832 C16.1574718,37.3545372 16.8162528,37.3545372 17.3710158,37.0424832 L31.9682166,28.6170203 C32.5229796,28.3049661 32.8350339,27.7155305 32.8350339,27.0914221 L32.8350339,10.2058239 C32.8350339,9.58171557 32.4883071,8.99227992 31.9682166,8.68022574 L17.3710158,0.254762979 L17.3710158,0.254762979 Z" id="path-6"/>
        <linearGradient x1="-4413.77%" y1="13.43%" x2="5327.93%" y2="13.43%" id="linearGradient-8">
            <stop stop-color="#6CC04A" offset="9.191646%"/>
            <stop stop-color="#66B848" offset="28.64%"/>
            <stop stop-color="#54A044" offset="59.68%"/>
            <stop stop-color="#41873F" offset="86.24%"/>
        </linearGradient>
        <linearGradient x1="-4.38880435%" y1="49.9972065%" x2="101.499239%" y2="49.9972065%" id="linearGradient-9">
            <stop stop-color="#6CC04A" offset="9.191646%"/>
            <stop stop-color="#66B848" offset="28.64%"/>
            <stop stop-color="#54A044" offset="59.68%"/>
            <stop stop-color="#41873F" offset="86.24%"/>
        </linearGradient>
        <linearGradient x1="-9713.77%" y1="36.21%" x2="27.93%" y2="36.21%" id="linearGradient-10">
            <stop stop-color="#6CC04A" offset="9.191646%"/>
            <stop stop-color="#66B848" offset="28.64%"/>
            <stop stop-color="#54A044" offset="59.68%"/>
            <stop stop-color="#41873F" offset="86.24%"/>
        </linearGradient>
        <linearGradient x1="-103.860714%" y1="50.2754209%" x2="100.796849%" y2="50.2754209%" id="linearGradient-11">
            <stop stop-color="#6CC04A" offset="9.191646%"/>
            <stop stop-color="#66B848" offset="28.64%"/>
            <stop stop-color="#54A044" offset="59.68%"/>
            <stop stop-color="#41873F" offset="86.24%"/>
        </linearGradient>
        <linearGradient x1="130.613025%" y1="-211.06936%" x2="4.39327731%" y2="201.605387%" id="linearGradient-12">
            <stop stop-color="#41873F" offset="0%"/>
            <stop stop-color="#418B3D" offset="32.88%"/>
            <stop stop-color="#419637" offset="63.52%"/>
            <stop stop-color="#3FA92D" offset="93.19%"/>
            <stop stop-color="#3FAE2A" offset="100%"/>
        </linearGradient>
    </defs>
    <g id="Symbols" stroke="none" stroke-width="1" fill="none" fill-rule="evenodd">
        <g id="Icons/Backend" transform="translate(-368.000000, -243.000000)">
            <g id="nodejs" transform="translate(368.000000, 243.000000)">
                <path d="M75.9331827,93.9283071 C75.4130925,93.9283071 74.9276748,93.7896162 74.4769299,93.5469075 L69.8654628,90.8077653 C69.1720089,90.4263657 69.518736,90.2876748 69.7267719,90.2183295 C70.6629345,89.9062755 70.8362979,89.8369299 71.8071333,89.2821669 C71.9111511,89.2128216 72.049842,89.2474944 72.1538601,89.3168397 L75.690474,91.4318736 C75.8291649,91.5012189 76.0025283,91.5012189 76.1065464,91.4318736 L89.940948,83.4224832 C90.0796389,83.3531376 90.1489842,83.214447 90.1489842,83.0410836 L90.1489842,67.0569753 C90.1489842,66.8836116 90.0796389,66.744921 89.940948,66.6755757 L76.1065464,58.7008578 C75.9678555,58.6315125 75.7944921,58.6315125 75.690474,58.7008578 L61.8560721,66.6755757 C61.7173815,66.744921 61.6480362,66.9182844 61.6480362,67.0569753 L61.6480362,83.0410836 C61.6480362,83.1797742 61.7173815,83.3531376 61.8560721,83.4224832 L65.635395,85.6068624 C67.6810836,86.6470428 68.963973,85.433499 68.963973,84.2199549 L68.963973,68.4438825 C68.963973,68.2358466 69.1373364,68.0278104 69.3800451,68.0278104 L71.1483522,68.0278104 C71.3563884,68.0278104 71.5644243,68.2011738 71.5644243,68.4438825 L71.5644243,84.2199549 C71.5644243,86.9590971 70.073499,88.5540405 67.4730474,88.5540405 C66.6755757,88.5540405 66.0514674,88.5540405 64.2831603,87.6872235 L60.6425283,85.6068624 C59.7410385,85.0867719 59.1862755,84.1159368 59.1862755,83.0757561 L59.1862755,67.0916478 C59.1862755,66.0514674 59.7410385,65.080632 60.6425283,64.5605418 L74.4769299,56.5511511 C75.3437472,56.0657337 76.5226185,56.0657337 77.3894358,56.5511511 L91.2238374,64.5605418 C92.1253272,65.080632 92.6800902,66.0514674 92.6800902,67.0916478 L92.6800902,83.0757561 C92.6800902,84.1159368 92.1253272,85.0867719 91.2238374,85.6068624 L77.3894358,93.6162528 C76.9386906,93.824289 76.4186004,93.9283071 75.9331827,93.9283071 Z M80.1979233,82.9370655 C74.1302031,82.9370655 72.8819865,80.1632505 72.8819865,77.8055079 C72.8819865,77.5974717 73.0553499,77.3894358 73.2980586,77.3894358 L75.1010385,77.3894358 C75.3090744,77.3894358 75.4824378,77.5281264 75.4824378,77.7361626 C75.7598193,79.573815 76.5572913,80.4753048 80.2325958,80.4753048 C83.1451017,80.4753048 84.3933183,79.8165237 84.3933183,78.2562528 C84.3933183,77.354763 84.0465915,76.6959819 79.5044694,76.245237 C75.7251468,75.8638374 73.3674042,75.0316929 73.3674042,72.0151692 C73.3674042,69.2066817 75.7251468,67.5423927 79.6778331,67.5423927 C84.1159368,67.5423927 86.300316,69.0679911 86.5776975,72.3965688 C86.5776975,72.5005869 86.5430247,72.604605 86.4736794,72.7086231 C86.4043341,72.7779684 86.300316,72.8473137 86.1962979,72.8473137 L84.3933183,72.8473137 C84.2199549,72.8473137 84.0465915,72.7086231 84.0119187,72.5352597 C83.5958466,70.628262 82.5209931,70.0041534 79.6778331,70.0041534 C76.4879457,70.0041534 76.1065464,71.1136794 76.1065464,71.9458239 C76.1065464,72.9513318 76.5572913,73.2633861 80.8567044,73.8181491 C85.1214447,74.3729121 87.1324605,75.1703838 87.1324605,78.1522347 C87.0977877,81.2034312 84.6013545,82.9370655 80.1979233,82.9370655 Z" id="Shape" fill="#539E43" fill-rule="nonzero"/>
                <path d="M33.0083973,31.4134536 C33.0083973,30.7893453 32.6616705,30.1999098 32.1069075,29.8878555 L17.4056885,21.4277201 C17.1629797,21.2890294 16.8855982,21.219684 16.6082167,21.1850113 L16.469526,21.1850113 C16.1921445,21.1850113 15.914763,21.2890294 15.6720542,21.4277201 L0.970835214,29.8878555 C0.416072235,30.1999098 0.0693453726,30.7893453 0.0693453726,31.4134536 L0.104018059,54.158736 C0.104018059,54.47079 0.27738149,54.7828443 0.554762979,54.9215349 C0.83214447,55.0948983 1.17887133,55.0948983 1.42158014,54.9215349 L10.1590971,49.9286682 C10.71386,49.6166139 11.0605869,49.0271784 11.0605869,48.4030701 L11.0605869,37.7585553 C11.0605869,37.134447 11.4073138,36.5450112 11.9620768,36.2329572 L15.6720542,34.0832505 C15.9494357,33.9098871 16.2614898,33.8405418 16.573544,33.8405418 C16.8855982,33.8405418 17.1976524,33.9098871 17.4403612,34.0832505 L21.1503386,36.2329572 C21.7051016,36.5450112 22.0518284,37.134447 22.0518284,37.7585553 L22.0518284,48.4030701 C22.0518284,49.0271784 22.3985553,49.6166139 22.9533183,49.9286682 L31.6908351,54.9215349 C31.9682166,55.0948983 32.3149437,55.0948983 32.5923252,54.9215349 C32.8697064,54.7828443 33.0430701,54.47079 33.0430701,54.158736 L33.0083973,31.4134536 L33.0083973,31.4134536 Z" id="Path" fill="#333333" fill-rule="nonzero"/>
                <path d="M103.671332,0.104018058 C103.39395,-0.0346726865 103.047224,-0.0346726865 102.804515,0.104018058 C102.527133,0.27738149 102.35377,0.554762979 102.35377,0.866817156 L102.35377,23.4040632 C102.35377,23.6120993 102.249752,23.8201354 102.041716,23.9588262 C101.833679,24.0628442 101.625643,24.0628442 101.417607,23.9588262 L97.7423025,21.8437923 C97.1875395,21.5317381 96.5287584,21.5317381 95.9739954,21.8437923 L81.2727765,30.3386004 C80.7180135,30.6506547 80.3712867,31.2400902 80.3712867,31.8641985 L80.3712867,48.8191422 C80.3712867,49.4432505 80.7180135,50.0326863 81.2727765,50.3447403 L95.9739954,58.8395484 C96.5287584,59.1516027 97.1875395,59.1516027 97.7423025,58.8395484 L112.443521,50.3447403 C112.998284,50.0326863 113.345011,49.4432505 113.345011,48.8191422 L113.345011,6.55313769 C113.345011,5.89435665 112.998284,5.304921 112.443521,4.99286682 L103.671332,0.104018058 L103.671332,0.104018058 Z M102.319097,43.2368397 C102.319097,43.4102031 102.249752,43.548894 102.111061,43.6182393 L97.0835214,46.5307449 C96.9448308,46.6000902 96.7714674,46.6000902 96.6327765,46.5307449 L91.605237,43.6182393 C91.4665464,43.548894 91.3972008,43.3755306 91.3972008,43.2368397 L91.3972008,37.4118285 C91.3972008,37.2384651 91.4665464,37.0997742 91.605237,37.0304289 L96.6327765,34.1179233 C96.7714674,34.048578 96.9448308,34.048578 97.0835214,34.1179233 L102.111061,37.0304289 C102.249752,37.0997742 102.319097,37.2731376 102.319097,37.4118285 L102.319097,43.2368397 L102.319097,43.2368397 Z" id="Shape" fill="#333333" fill-rule="nonzero"/>
                <g id="Group" transform="translate(120.614221, 21.150339)" fill-rule="nonzero">
                    <path d="M31.9802709,16.1227991 C32.5350339,15.8107449 32.8470879,15.2213092 32.8470879,14.5972009 L32.8470879,10.4711513 C32.8470879,9.84704289 32.5003611,9.25760721 31.9802709,8.94555306 L17.38307,0.485417607 C16.828307,0.173363431 16.169526,0.173363431 15.614763,0.485417607 L0.913544019,8.98022574 C0.358781037,9.29227992 0.012054177,9.88171557 0.012054177,10.5058239 L0.012054177,27.4607675 C0.012054177,28.0848758 0.358781037,28.6743115 0.913544019,28.9863657 L15.5107449,37.3078104 C16.0655079,37.6198647 16.7242889,37.6198647 17.2443792,37.3078104 L26.0859142,32.384289 C26.3632957,32.2455981 26.5366591,31.9335441 26.5366591,31.6214898 C26.5366591,31.3094358 26.3632957,30.9973815 26.0859142,30.8586906 L11.3153499,22.3638826 C11.0379684,22.1905192 10.864605,21.9131377 10.864605,21.6010835 L10.864605,16.2961625 C10.864605,15.9841084 11.0379684,15.6720542 11.3153499,15.5333634 L15.9268171,12.8982393 C16.2041986,12.7248758 16.5509255,12.7248758 16.828307,12.8982393 L21.4397743,15.5333634 C21.7171558,15.7067269 21.8905192,15.9841084 21.8905192,16.2961625 L21.8905192,20.4568849 C21.8905192,20.768939 22.0638826,21.0809932 22.3412641,21.219684 C22.6186456,21.3930474 22.9653724,21.3930474 23.2427539,21.219684 L31.9802709,16.1227991 L31.9802709,16.1227991 Z" id="Path" fill="#333333"/>
                    <path d="M16.273544,15.3253273 C16.3775621,15.2559819 16.5162528,15.2559819 16.6202709,15.3253273 L19.4287585,16.9549436 C19.5327765,17.0242889 19.6021219,17.128307 19.6021219,17.2669977 L19.6021219,20.5262302 C19.6021219,20.664921 19.5327765,20.768939 19.4287585,20.8382844 L16.6202709,22.4679007 C16.5162528,22.5372461 16.3775621,22.5372461 16.273544,22.4679007 L13.4650564,20.8382844 C13.3610384,20.768939 13.291693,20.664921 13.291693,20.5262302 L13.291693,17.2669977 C13.291693,17.128307 13.3610384,17.0242889 13.4650564,16.9549436 L16.273544,15.3253273 L16.273544,15.3253273 Z" id="Path" fill="#539E43"/>
                </g>
                <g id="Group" transform="translate(40.220316, 21.450339)">
                    <g id="path-2-link" fill="url(#linearGradient-2)" fill-rule="nonzero">
                        <path d="M17.3710158,0.254762979 C16.8162528,-0.0572911965 16.1574718,-0.0572911965 15.6027088,0.254762979 L1.0055079,8.68022574 C0.450744921,8.99227992 0.138690745,9.58171557 0.138690745,10.2058239 L0.138690745,27.0914221 C0.138690745,27.7155305 0.485417607,28.3049661 1.0055079,28.6170203 L15.6027088,37.0424832 C16.1574718,37.3545372 16.8162528,37.3545372 17.3710158,37.0424832 L31.9682166,28.6170203 C32.5229796,28.3049661 32.8350339,27.7155305 32.8350339,27.0914221 L32.8350339,10.2058239 C32.8350339,9.58171557 32.4883071,8.99227992 31.9682166,8.68022574 L17.3710158,0.254762979 L17.3710158,0.254762979 Z" id="path-2"/>
                    </g>
                    <g id="Clipped">
                        <mask id="mask-4" fill="white">
                            <use xlink:href="#path-3"/>
                        </mask>
                        <g id="path-2"/>
                        <g id="Group" mask="url(#mask-4)">
                            <path d="M15.5680361,0.254762979 L0.936162528,8.68022574 C0.381399549,8.99227992 0,9.58171557 0,10.2058239 L0,27.0914221 C0,27.5074944 0.173363431,27.8888939 0.450744921,28.2009481 L16.8855982,0.046726863 C16.469526,-0.0226185102 15.9841084,0.012054177 15.5680361,0.254762979 L15.5680361,0.254762979 Z" id="Path"/>
                            <path d="M16.9896163,37.2158466 C17.128307,37.1811738 17.2669977,37.1118285 17.4056885,37.0424832 L32.0375622,28.6170203 C32.5923252,28.3049661 32.939052,27.7155305 32.939052,27.0914221 L32.939052,10.2058239 C32.939052,9.755079 32.7310158,9.3043341 32.4189615,8.99227992 L16.9896163,37.2158466 L16.9896163,37.2158466 Z" id="Path"/>
                            <path d="M32.0028894,8.68022574 L17.3363431,0.254762979 C17.1976524,0.185417607 17.0242889,0.116072235 16.8855982,0.081399549 L0.450744921,28.2356208 C0.589435665,28.4089842 0.762799098,28.547675 0.936162528,28.651693 L15.6027088,37.0771557 C16.018781,37.3198647 16.5041986,37.38921 16.9549436,37.2505191 L32.384289,9.0269526 C32.2802709,8.88826185 32.14158,8.78424378 32.0028894,8.68022574 L32.0028894,8.68022574 Z" id="Path" fill="url(#linearGradient-5)" fill-rule="nonzero"/>
                        </g>
                    </g>
                    <g id="Clipped">
                        <mask id="mask-7" fill="white">
                            <use xlink:href="#path-6"/>
                        </mask>
                        <g id="path-2"/>
                        <g id="Group" mask="url(#mask-7)">
                            <g transform="translate(0.000000, -3.073815)" id="Path">
                                <path d="M32.939052,30.165237 L32.939052,13.2796388 C32.939052,12.6555305 32.5576524,12.0660948 32.0028894,11.7540406 L17.3363431,3.32857788 C17.1629797,3.22455981 16.9896163,3.15521445 16.7815801,3.12054177 L32.8350339,30.5466366 C32.9043792,30.4426185 32.939052,30.3039279 32.939052,30.165237 L32.939052,30.165237 Z" fill="none"/>
                                <path d="M0.936162528,11.7540406 C0.381399549,12.0660948 0,12.6555305 0,13.2796388 L0,30.165237 C0,30.7893453 0.416072235,31.3787811 0.936162528,31.6908351 L15.6027088,40.1162979 C15.9494357,40.3243341 16.3308352,40.3936794 16.7469074,40.3243341 L1.04018059,11.7193679 L0.936162528,11.7540406 L0.936162528,11.7540406 Z" fill="none"/>
                                <polygon fill="url(#linearGradient-8)" fill-rule="evenodd" points="15.1172912 0.242708804 14.9092551 0.346726863 15.1866366 0.346726863"/>
                                <path d="M32.0375622,31.6908351 C32.4536343,31.4481264 32.7656886,31.0320543 32.9043792,30.5813094 L16.8162528,3.12054177 C16.4001806,3.05119638 15.9494357,3.08586906 15.5680361,3.32857788 L1.0055079,11.7193679 L16.7122348,40.3590069 C16.9202709,40.3243341 17.1629797,40.2549888 17.3710158,40.1509707 L32.0375622,31.6908351 L32.0375622,31.6908351 Z" fill="url(#linearGradient-9)" fill-rule="evenodd"/>
                                <polygon fill="url(#linearGradient-10)" fill-rule="evenodd" points="33.3897969 31.4134536 33.2857788 31.2400902 33.2857788 31.4827992"/>
                                <path d="M32.0375622,31.6908351 L17.4056885,40.1162979 C17.1976524,40.220316 16.9896163,40.2896613 16.7469074,40.3243341 L17.0242889,40.8444243 L33.251106,31.4481264 L33.251106,31.2400902 L32.8350339,30.5466366 C32.7656886,31.0320543 32.4536343,31.4481264 32.0375622,31.6908351 L32.0375622,31.6908351 Z" fill="url(#linearGradient-11)" fill-rule="evenodd"/>
                                <path d="M32.0375622,31.6908351 L17.4056885,40.1162979 C17.1976524,40.220316 16.9896163,40.2896613 16.7469074,40.3243341 L17.0242889,40.8444243 L33.251106,31.4481264 L33.251106,31.2400902 L32.8350339,30.5466366 C32.7656886,31.0320543 32.4536343,31.4481264 32.0375622,31.6908351 L32.0375622,31.6908351 Z" fill="url(#linearGradient-12)" fill-rule="evenodd"/>
                            </g>
                        </g>
                    </g>
                </g>
            </g>
        </g>
    </g>
</svg>