<svg xmlns="http://www.w3.org/2000/svg" xmlns:xlink="http://www.w3.org/1999/xlink" width="85" height="45" viewBox="0 0 85 45" version="1.1">
    <!-- Generator: Sketch 60 (88103) - https://sketch.com -->
    <title>php</title>
    <desc>Created with Sketch.</desc>
    <defs>
        <radialGradient cx="30.0202132%" cy="17.5837348%" fx="30.0202132%" fy="17.5837348%" r="124.884962%" gradientTransform="translate(0.300202,0.175837),scale(0.525781,1.000000),translate(-0.300202,-0.175837)" id="radialGradient-1">
            <stop stop-color="#FFFFFF" offset="0%"/>
            <stop stop-color="#4C6B97" offset="50%"/>
            <stop stop-color="#231F20" offset="100%"/>
        </radialGradient>
    </defs>
    <g id="Symbols" stroke="none" stroke-width="1" fill="none" fill-rule="evenodd">
        <g id="Icons/Backend" transform="translate(-18.000000, -278.000000)" fill-rule="nonzero">
            <g id="php" transform="translate(18.000000, 278.000000)">
                <ellipse id="Oval" fill="url(#radialGradient-1)" cx="42.2400026" cy="22.2090014" rx="42.2400026" ry="22.2090014"/>
                <ellipse id="Oval" fill="#6181B6" cx="42.2400026" cy="22.2090014" rx="40.5900025" ry="20.5590013"/>
                <g id="Group" transform="translate(11.880001, 5.610000)" fill="#FFFFFF">
                    <path d="M38.5770024,23.2650014 C38.5770024,23.2650014 40.5900025,12.9030008 40.5900025,12.9030008 C41.0520025,10.5600006 40.6560025,8.81100054 39.4680024,7.72200047 C38.3130024,6.66600041 36.3330022,6.13800038 33.4290021,6.13800038 L29.9310018,6.13800038 L30.9210019,0.990000061 C30.9540019,0.792000049 30.9210019,0.594000036 30.7890019,0.429000026 C30.6570019,0.264000016 30.4920019,0.198000012 30.2940019,0.198000012 L25.4760016,0.198000012 C25.1460015,0.198000012 24.8820015,0.429000026 24.8160015,0.726000045 L22.6710014,11.7150007 C22.4730014,10.4610006 22.0110014,9.40500058 21.2190013,8.54700052 C19.8000012,6.93000043 17.5890011,6.10500037 14.5860009,6.10500037 L5.31300033,6.10500037 C4.98300031,6.10500037 4.71900029,6.33600039 4.65300029,6.63300041 L0.33000002,28.9410018 C0.297000018,29.1390018 0.33000002,29.3370018 0.462000028,29.5020018 C0.594000036,29.6670018 0.759000047,29.7330018 0.957000059,29.7330018 L5.80800036,29.7330018 C6.13800038,29.7330018 6.40200039,29.5020018 6.4680004,29.2050018 L7.52400046,23.8260015 L11.1210007,23.8260015 C13.0020008,23.8260015 14.6190009,23.6280015 15.840001,23.2320014 C17.1270011,22.8030014 18.2820011,22.1100014 19.3050012,21.1530013 C20.1300012,20.3940013 20.8230013,19.5360012 21.3510013,18.6120011 L20.4930013,23.0670014 C20.4600013,23.2650014 20.4930013,23.4630014 20.6250013,23.6280015 C20.7570013,23.7930015 20.9220013,23.8590015 21.1200013,23.8590015 L25.9380016,23.8590015 C26.2680016,23.8590015 26.5320016,23.6280015 26.5980016,23.3310014 L28.9740018,11.1210007 L32.274002,11.1210007 C33.6930021,11.1210007 34.0890021,11.3850007 34.2210021,11.5170007 C34.3200021,11.6160007 34.5180021,12.0120007 34.2870021,13.2330008 L32.373002,23.1000014 C32.340002,23.2980014 32.373002,23.4960014 32.505002,23.6610015 C32.637002,23.8260015 32.802002,23.8920015 33.000002,23.8920015 L37.9500023,23.8920015 C38.2470023,23.7930015 38.5110024,23.5620014 38.5770024,23.2650014 Z M16.269001,14.6850009 C15.972001,16.236001 15.4110009,17.3580011 14.5860009,17.9850011 C13.7610008,18.6120011 12.4080008,18.9420012 10.6260007,18.9420012 L8.48100052,18.9420012 L10.0320006,10.9560007 L12.8040008,10.9560007 C14.8500009,10.9560007 15.675001,11.3850007 16.005001,11.7480007 C16.434001,12.2760008 16.533001,13.2990008 16.269001,14.6850009 Z" id="Shape"/>
                    <path d="M59.1690036,8.54700052 C57.7500035,6.93000043 55.5390034,6.10500037 52.5360032,6.10500037 L43.1970027,6.10500037 C42.8670026,6.10500037 42.6030026,6.33600039 42.5370026,6.63300041 L38.2140023,28.9080018 C38.1810023,29.1060018 38.2140023,29.3040018 38.3460024,29.4690018 C38.4780024,29.6340018 38.6430024,29.7000018 38.8410024,29.7000018 L43.6920027,29.7000018 C44.0220027,29.7000018 44.2860027,29.4690018 44.3520027,29.1720018 L45.4080028,23.7930015 L49.005003,23.7930015 C50.8860031,23.7930015 52.5030032,23.5950014 53.7240033,23.1990014 C55.0110034,22.7700014 56.1660034,22.0770014 57.1890035,21.1200013 C58.0470036,20.3280012 58.7730036,19.4370012 59.3010036,18.4800011 C59.8290037,17.5230011 60.2250037,16.467001 60.4560037,15.3120009 C61.0170037,12.4410008 60.5880037,10.1970006 59.1690036,8.54700052 Z M54.1200033,14.6850009 C53.8230033,16.236001 53.2620033,17.3580011 52.4370032,17.9850011 C51.6120032,18.6120011 50.2590031,18.9420012 48.477003,18.9420012 L46.3320028,18.9420012 L47.8830029,10.9560007 L50.6550031,10.9560007 C52.7010032,10.9560007 53.5260033,11.3850007 53.8560033,11.7480007 C54.3180033,12.2760008 54.4170033,13.2990008 54.1200033,14.6850009 Z" id="Shape"/>
                </g>
                <g id="Group" transform="translate(12.870001, 6.270000)" fill="#000004">
                    <path d="M11.8140007,9.63600059 C13.6620008,9.63600059 14.8830009,9.96600061 15.510001,10.6590007 C16.137001,11.3520007 16.269001,12.5070008 15.939001,14.1570009 C15.609001,15.873001 14.9490009,17.1270011 13.9920009,17.8530011 C13.0350008,18.5790011 11.5830007,18.9420012 9.63600059,18.9420012 L6.69900041,18.9420012 L8.51400052,9.63600059 L11.8140007,9.63600059 Z M0,28.3800017 L4.8510003,28.3800017 L6.00600037,22.4730014 L10.1640006,22.4730014 C12.0120007,22.4730014 13.4970008,22.2750014 14.6850009,21.8790013 C15.873001,21.4830013 16.929001,20.8560013 17.9190011,19.9320012 C18.7440012,19.1730012 19.4040012,18.3480011 19.8990012,17.4570011 C20.3940013,16.566001 20.7570013,15.576001 20.9550013,14.4870009 C21.4830013,11.8470007 21.0870013,9.8010006 19.8000012,8.31600051 C18.5130011,6.83100042 16.467001,6.10500037 13.6620008,6.10500037 L4.32300027,6.10500037 L0,28.3800017 Z" id="Shape"/>
                    <path d="M24.5190015,0.198000012 L29.3370018,0.198000012 L28.1820017,6.10500037 L32.472002,6.10500037 C35.1780022,6.10500037 37.0260023,6.5670004 38.0490023,7.52400046 C39.0720024,8.48100052 39.3690024,9.99900061 38.9730024,12.1110007 L36.9600023,22.4730014 L32.076002,22.4730014 L33.9900021,12.6060008 C34.2210021,11.4840007 34.1220021,10.7250007 33.7590021,10.3290006 C33.3960021,9.93300061 32.571002,9.7020006 31.3500019,9.7020006 L27.4890017,9.7020006 L25.0140015,22.4730014 L20.1960012,22.4730014 L24.5190015,0.198000012 Z" id="Path"/>
                    <path d="M49.665003,9.63600059 C51.5130032,9.63600059 52.7340032,9.96600061 53.3610033,10.6590007 C53.9880033,11.3520007 54.1200033,12.5070008 53.7900033,14.1570009 C53.4600033,15.873001 52.8000032,17.1270011 51.8430032,17.8530011 C50.8860031,18.5790011 49.434003,18.9420012 47.4870029,18.9420012 L44.5500027,18.9420012 L46.3650028,9.63600059 L49.665003,9.63600059 Z M37.8510023,28.3800017 L42.7020026,28.3800017 L43.8570027,22.4730014 L48.0150029,22.4730014 C49.8630031,22.4730014 51.3480032,22.2750014 52.5360032,21.8790013 C53.7240033,21.4830013 54.7800034,20.8560013 55.7700034,19.9320012 C56.5950035,19.1730012 57.2550035,18.3480011 57.7500035,17.4570011 C58.2450036,16.566001 58.6080036,15.576001 58.8060036,14.4870009 C59.3340036,11.8470007 58.9380036,9.8010006 57.6510035,8.31600051 C56.3640035,6.83100042 54.3180033,6.10500037 51.5130032,6.10500037 L42.1740026,6.10500037 L37.8510023,28.3800017 Z" id="Shape"/>
                </g>
            </g>
        </g>
    </g>
</svg>