<svg xmlns="http://www.w3.org/2000/svg" xmlns:xlink="http://www.w3.org/1999/xlink" width="77" height="73" viewBox="0 0 77 73" version="1.1">
    <!-- Generator: Sketch 60 (88103) - https://sketch.com -->
    <title>dotnet</title>
    <desc>Created with Sketch.</desc>
    <defs>
        <linearGradient x1="49.9972467%" y1="-19.5160457%" x2="49.9972467%" y2="129.625092%" id="linearGradient-1">
            <stop stop-color="#0994DC" offset="0%"/>
            <stop stop-color="#66CEF5" offset="35.000601%"/>
            <stop stop-color="#66CEF5" offset="35.000601%"/>
            <stop stop-color="#127BCA" offset="84.616101%"/>
            <stop stop-color="#127BCA" offset="84.616101%"/>
            <stop stop-color="#127BCA" offset="100%"/>
        </linearGradient>
        <linearGradient x1="50.0007616%" y1="-19.5161868%" x2="50.0007616%" y2="129.624154%" id="linearGradient-2">
            <stop stop-color="#0E76BC" offset="0%"/>
            <stop stop-color="#36AEE8" offset="36.0001%"/>
            <stop stop-color="#36AEE8" offset="36.0001%"/>
            <stop stop-color="#00ADEF" offset="84.616101%"/>
            <stop stop-color="#00ADEF" offset="84.616101%"/>
            <stop stop-color="#00ADEF" offset="100%"/>
        </linearGradient>
        <linearGradient x1="49.9991979%" y1="110.921751%" x2="49.9991979%" y2="-6.21395776%" id="linearGradient-3">
            <stop stop-color="#1C63B7" offset="0%"/>
            <stop stop-color="#33BDF2" offset="50%"/>
            <stop stop-color="#33BDF2" stop-opacity="0.41960785" offset="100%"/>
        </linearGradient>
        <linearGradient x1="50.0009899%" y1="-19.5149993%" x2="50.0009899%" y2="129.627315%" id="linearGradient-4">
            <stop stop-color="#166AB8" offset="0%"/>
            <stop stop-color="#36AEE8" offset="39.999399%"/>
            <stop stop-color="#36AEE8" offset="39.999399%"/>
            <stop stop-color="#0798DD" offset="84.616101%"/>
            <stop stop-color="#0798DD" offset="84.616101%"/>
            <stop stop-color="#0798DD" offset="100%"/>
        </linearGradient>
        <linearGradient x1="49.9985422%" y1="-19.5211325%" x2="49.9985422%" y2="129.626892%" id="linearGradient-5">
            <stop stop-color="#124379" offset="0%"/>
            <stop stop-color="#1487CB" offset="38.9999%"/>
            <stop stop-color="#1487CB" offset="38.9999%"/>
            <stop stop-color="#165197" offset="78.022802%"/>
            <stop stop-color="#165197" offset="78.022802%"/>
            <stop stop-color="#165197" offset="100%"/>
        </linearGradient>
        <linearGradient x1="0.000304652977%" y1="50.000544%" x2="100.000291%" y2="50.000544%" id="linearGradient-6">
            <stop stop-color="#33BDF2" stop-opacity="0.69803923" offset="0%"/>
            <stop stop-color="#1DACD8" offset="100%"/>
        </linearGradient>
        <linearGradient x1="50.0095709%" y1="94.6864084%" x2="50.0095709%" y2="-3.02458407%" id="linearGradient-7">
            <stop stop-color="#136AB4" offset="0%"/>
            <stop stop-color="#59CAF5" stop-opacity="0.54901963" offset="60.000002%"/>
            <stop stop-color="#59CAF5" stop-opacity="0.23529412" offset="100%"/>
        </linearGradient>
        <linearGradient x1="-0.000760861053%" y1="49.999714%" x2="99.9992241%" y2="49.999714%" id="linearGradient-8">
            <stop stop-color="#05A1E6" stop-opacity="0.24705882" offset="0%"/>
            <stop stop-color="#05A1E6" offset="100%"/>
        </linearGradient>
        <linearGradient x1="49.9983236%" y1="124.313712%" x2="49.9983236%" y2="-9.42137278%" id="linearGradient-9">
            <stop stop-color="#318ED5" offset="0%"/>
            <stop stop-color="#38A7E4" offset="100%"/>
        </linearGradient>
        <linearGradient x1="49.99857%" y1="91.1999524%" x2="49.99857%" y2="-76.7854074%" id="linearGradient-10">
            <stop stop-color="#05A1E6" offset="0%"/>
            <stop stop-color="#05A1E6" stop-opacity="0.54901963" offset="100%"/>
        </linearGradient>
        <linearGradient x1="50.0000694%" y1="100.01049%" x2="50.0000694%" y2="0.0101898204%" id="linearGradient-11">
            <stop stop-color="#1959A6" offset="0%"/>
            <stop stop-color="#05A1E6" offset="50%"/>
            <stop stop-color="#05A1E6" offset="50%"/>
            <stop stop-color="#7EC5EA" offset="91.758698%"/>
            <stop stop-color="#7EC5EA" offset="100%"/>
        </linearGradient>
        <linearGradient x1="59.8041209%" y1="94.5677442%" x2="38.4710575%" y2="5.75513731%" id="linearGradient-12">
            <stop stop-color="#165096" offset="0%"/>
            <stop stop-color="#0D82CA" offset="100%"/>
        </linearGradient>
        <linearGradient x1="49.9946843%" y1="76.9980959%" x2="49.9946843%" y2="-3.29893613%" id="linearGradient-13">
            <stop stop-color="#05A1E6" offset="0%"/>
            <stop stop-color="#0495D6" offset="87.362701%"/>
            <stop stop-color="#0495D6" offset="100%"/>
        </linearGradient>
        <linearGradient x1="65.2631169%" y1="-4.16143813%" x2="34.2626975%" y2="105.843625%" id="linearGradient-14">
            <stop stop-color="#38A7E4" stop-opacity="0.32941177" offset="0%"/>
            <stop stop-color="#0E88D3" offset="96.153301%"/>
            <stop stop-color="#0E88D3" offset="96.153301%"/>
            <stop stop-color="#0E88D3" offset="100%"/>
        </linearGradient>
        <linearGradient x1="50.016714%" y1="-0.295776148%" x2="50.016714%" y2="101.881944%" id="linearGradient-15">
            <stop stop-color="#168CD4" offset="0%"/>
            <stop stop-color="#1C87CC" offset="50%"/>
            <stop stop-color="#154B8D" offset="100%"/>
        </linearGradient>
        <linearGradient x1="16.6738062%" y1="205.564966%" x2="87.8125992%" y2="-19.8362753%" id="linearGradient-16">
            <stop stop-color="#97D6EE" offset="0%"/>
            <stop stop-color="#55C1EA" offset="70.329303%"/>
            <stop stop-color="#55C1EA" offset="100%"/>
        </linearGradient>
        <linearGradient x1="6.89015912%" y1="6.30038251%" x2="75.7828966%" y2="116.770678%" id="linearGradient-17">
            <stop stop-color="#7ACCEC" offset="0%"/>
            <stop stop-color="#3FB7ED" offset="100%"/>
        </linearGradient>
        <linearGradient x1="49.9966533%" y1="6.36281892%" x2="49.9966533%" y2="127.96135%" id="linearGradient-18">
            <stop stop-color="#1DA7E7" offset="0%"/>
            <stop stop-color="#37ABE7" stop-opacity="0" offset="100%"/>
        </linearGradient>
    </defs>
    <g id="Symbols" stroke="none" stroke-width="1" fill="none" fill-rule="evenodd">
        <g id="Icons/Backend" transform="translate(-39.000000, -111.000000)" fill-rule="nonzero">
            <g id="dotnet" transform="translate(39.000000, 111.000000)">
                <g id="Group" transform="translate(8.020253, 34.997470)" fill="#000000">
                    <path d="M56.2604887,3.40418444 C56.2604887,3.2753986 56.2251511,3.18333583 56.152507,3.1231596 C56.0720371,3.05838999 55.9328491,3.02385429 55.7390992,3.02385429 L55.4605534,3.02385429 L55.4605534,3.78942396 L55.7967235,3.78942396 C56.107156,3.78942396 56.2604887,3.66063813 56.2604887,3.40418444 L56.2604887,3.40418444 Z M56.6947976,5.00040932 L56.3120128,5.00040932 L56.0679055,4.46176422 C55.9439317,4.19184626 55.8114274,4.05688726 55.6666741,4.05688726 L55.4605534,4.05688726 L55.4605534,5.00040932 L55.1451874,5.00040932 L55.1451874,2.75510289 L55.7770861,2.75510289 C56.0580868,2.75510289 56.2690192,2.81595961 56.4138943,2.94287404 C56.5365799,3.0520224 56.5979227,3.19196368 56.5979227,3.36619759 C56.5979227,3.52079405 56.5478569,3.6508437 56.4469717,3.75870396 C56.3488087,3.86794953 56.2076764,3.94156573 56.0273668,3.97964977 L56.0273668,3.9893713 C56.152507,4.01882749 56.2776472,4.15624118 56.3990689,4.40406702 L56.6947976,5.0016245 L56.6947976,5.00040932 Z M57.394115,3.89983611 C57.394115,3.45816317 57.2432615,3.08519709 56.9426234,2.78946847 C56.6408189,2.49383706 56.2727377,2.34541376 55.8384289,2.34541376 C55.3905586,2.34541376 55.0176898,2.49383706 54.7219612,2.79202036 C54.4262326,3.09137025 54.2790973,3.46178444 54.2790973,3.89983611 C54.2790973,4.34770649 54.4324057,4.72186348 54.7366891,5.02004678 C55.0373272,5.31813288 55.405384,5.46536527 55.8384289,5.46536527 C56.2690192,5.46536527 56.6370761,5.31694197 56.9401688,5.0150402 C57.2432615,4.71812071 57.394115,4.34525183 57.394115,3.89983611 L57.394115,3.89983611 Z M57.6063359,3.89011458 C57.6063359,4.38588776 57.4358447,4.80175006 57.0935744,5.13665639 C56.7512312,5.47409035 56.3316259,5.6421268 55.8298012,5.6421268 C55.3244035,5.6421268 54.9048229,5.47654504 54.5710102,5.1513602 C54.2373919,4.82138752 54.0717129,4.40669184 54.0717129,3.90367612 C54.0717129,3.41164571 54.2410132,2.99821379 54.5796379,2.65842238 C54.9182629,2.31979756 55.3402984,2.1504973 55.844602,2.1504973 C56.33899,2.1504973 56.7536858,2.31243351 57.0898559,2.63506643 C57.4345565,2.96632721 57.6063359,3.38347759 57.6063359,3.89011458 L57.6063359,3.89011458 Z" id="Shape"/>
                    <path d="M9.61950662,10.1508946 L8.53130404,10.1508946 L8.53130404,3.92319205 C8.53130404,3.43125887 8.56370101,2.8325348 8.62161694,2.12585325 L8.5970701,2.12585325 C8.4951886,2.53926086 8.40193491,2.83863505 8.31978807,3.02395152 L5.15686745,10.1508946 L4.6268502,10.1508946 L1.45774183,3.07547556 C1.36842294,2.87788568 1.27498456,2.56008922 1.18046466,2.12585325 L1.15691427,2.12585325 C1.19028582,2.49755554 1.20893655,3.0999981 1.20893655,3.93546547 L1.20893655,10.1508946 L0.15989469,10.1508946 L0.15989469,0.876881048 L1.59535723,0.876881048 L4.44056646,7.34378156 C4.65522489,7.83090259 4.79391208,8.20141401 4.86134053,8.4541492 L4.90649215,8.4541492 C5.09170166,7.94741501 5.23892922,7.56706056 5.35062462,7.31678003 L8.25708429,0.876881048 L9.61892333,0.876881048 L9.61892333,10.1508946 L9.61950662,10.1508946 Z" id="Path"/>
                    <path d="M12.966966,10.1506029 L11.9094834,10.1506029 L11.9094834,3.52784216 L12.966966,3.52784216 L12.966966,10.1506029 L12.966966,10.1506029 Z M13.1498278,1.15377422 C13.1498278,1.34888512 13.0811209,1.51201221 12.9448738,1.64580462 C12.8112029,1.77947551 12.6456212,1.84701577 12.4516768,1.84701577 C12.2627391,1.84701577 12.0983239,1.78222184 11.9634622,1.65316867 C11.8285032,1.52311905 11.7621538,1.35744005 11.7621538,1.15377422 C11.7621538,0.96238181 11.828892,0.799254716 11.9634622,0.666750407 C12.0983239,0.534246096 12.2627391,0.470448628 12.4516768,0.470448628 C12.6455239,0.470448628 12.8112029,0.534246096 12.9448738,0.666750407 C13.0811209,0.799254716 13.1498278,0.96238181 13.1498278,1.15377422 L13.1498278,1.15377422 Z" id="Shape"/>
                    <path d="M19.576068,9.84418065 C19.0681429,10.155804 18.4620548,10.3104004 17.7614492,10.3104004 C16.8119484,10.3104004 16.0475453,9.99513154 15.4635494,9.36568747 C14.8967119,8.75468996 14.6108992,7.96586159 14.6108992,6.99905647 C14.6108992,5.91440226 14.9212587,5.03603867 15.54696,4.36860776 C16.16904,3.69991305 17.0057955,3.36619759 18.0584659,3.36619759 C18.6338341,3.36619759 19.1442138,3.47906444 19.5907961,3.70236774 L19.5907961,4.79066752 C19.0964082,4.44341487 18.5737551,4.27163561 18.0130178,4.27163561 C17.3382229,4.27163561 16.7898563,4.50721233 16.364078,4.97715059 C15.921117,5.45809846 15.6966471,6.10098252 15.6966471,6.90337242 C15.6966471,7.67385144 15.9015767,8.28358515 16.3089084,8.73388592 C16.7174309,9.18165909 17.2609854,9.4062262 17.9467657,9.4062262 C18.5258523,9.4062262 19.0681429,9.21600037 19.576068,8.83695833 L19.576068,9.84418065 L19.576068,9.84418065 Z" id="Path"/>
                    <path d="M24.6345877,4.60231308 C24.4481047,4.45882347 24.1794748,4.38882851 23.8248581,4.38882851 C23.3942677,4.38882851 23.0322869,4.58150904 22.7391102,4.97036981 C22.4065613,5.40470298 22.2409795,6.00588177 22.2409795,6.7739061 L22.2409795,10.1503113 L21.180945,10.1503113 L21.180945,3.52755053 L22.2409795,3.52755053 L22.2409795,4.89313234 L22.2664985,4.89313234 C22.4223588,4.40972979 22.6628449,4.03793029 22.9842869,3.77420976 C23.2848277,3.53374799 23.6247163,3.412229 23.9988733,3.412229 C24.2810647,3.412229 24.4909037,3.44265737 24.6343933,3.5025176 L24.6343933,4.60182702 L24.6345877,4.60231308 Z" id="Path"/>
                    <path d="M30.5426223,6.85124079 C30.5426223,6.00352428 30.3512301,5.35573083 29.9684452,4.91157893 C29.5967429,4.48463409 29.0777109,4.27114955 28.4091134,4.27114955 C27.7502131,4.27114955 27.221484,4.48708878 26.8263285,4.91894297 C26.4079873,5.38025337 26.1994364,6.03169239 26.1994364,6.87707571 C26.1994364,7.66964688 26.3981929,8.29162971 26.7994242,8.73575732 C27.1981038,9.18233961 27.7354851,9.40564291 28.4091134,9.40564291 C29.1059763,9.40564291 29.639639,9.17871834 30.005241,8.72722667 C30.3635034,8.28552945 30.5426223,7.66099473 30.5426223,6.85124079 M31.6296583,6.81395874 C31.6296583,7.86908386 31.3315722,8.71692188 30.7377333,9.3524419 C30.1414881,9.99041659 29.3390983,10.3094283 28.3305879,10.3094283 C27.3368055,10.3094283 26.5454009,9.99041659 25.9651478,9.3524419 C25.3970465,8.73772592 25.1112338,7.92551728 25.1112338,6.91584027 C25.1112338,5.763743 25.4338424,4.87546348 26.0816359,4.24485284 C26.6803599,3.65966598 27.4814861,3.36520114 28.4851843,3.36520114 C29.4727692,3.36520114 30.2445363,3.67310598 30.8002668,4.28293688 C31.3511853,4.89636475 31.6296583,5.74048427 31.6296583,6.81395874" id="Shape"/>
                    <path d="M36.8867157,8.3787831 C36.8867157,8.92107377 36.6843381,9.37011076 36.2781971,9.72837306 C35.8353335,10.1160672 35.2267907,10.3099143 34.461221,10.3099143 C33.8342317,10.3099143 33.2845768,10.1786738 32.818357,9.91121052 L32.818357,8.77138667 C33.3373891,9.19344646 33.9102781,9.40574011 34.5397223,9.40574011 C35.3789324,9.40574011 35.799704,9.0965715 35.799704,8.48066464 C35.799704,8.22173199 35.7074468,8.00708084 35.5212554,7.84140184 C35.3347481,7.67210157 34.9727675,7.46969955 34.4342195,7.23285902 C33.8796553,6.98994256 33.484597,6.74092584 33.2514994,6.48201749 C32.9717626,6.17527924 32.8306306,5.77659971 32.8306306,5.28583311 C32.8306306,4.73617843 33.0502882,4.27851359 33.484597,3.91417534 C33.9200968,3.548549 34.4795705,3.36571153 35.1666146,3.36571153 C35.6930105,3.36571153 36.1641395,3.46875962 36.5824566,3.67614396 L36.5824566,4.74354247 C36.1456928,4.4282007 35.6463956,4.27114955 35.0795582,4.27114955 C34.7286842,4.27114955 34.4464928,4.3584974 34.2366539,4.52879409 C34.0244333,4.70300374 33.9176422,4.92514046 33.9176422,5.19622503 C33.9176422,5.48949895 34.0069589,5.71771163 34.1839391,5.8808387 C34.340966,6.03178962 34.6746812,6.21581797 35.1777212,6.43046912 C35.7432707,6.66730964 36.1518662,6.91270509 36.4008827,7.16415217 C36.7235886,7.48197297 36.8867157,7.88684992 36.8867157,8.3787831" id="Path"/>
                    <path d="M43.3651121,6.85124079 C43.3651121,6.00352428 43.1737196,5.35573083 42.7897439,4.91157893 C42.4192325,4.48463409 41.8990097,4.27114955 41.2316029,4.27114955 C40.5727027,4.27114955 40.0439494,4.48708878 39.6464365,4.91894297 C39.2293105,5.38025337 39.0219019,6.03169239 39.0219019,6.87707571 C39.0219019,7.66964688 39.2206582,8.29162971 39.6181711,8.73575732 C40.0218814,9.18233961 40.5592627,9.40564291 41.2316029,9.40564291 C41.9296325,9.40564291 42.4621043,9.17871834 42.8277308,8.72722667 C43.1859686,8.28552945 43.3651121,7.66099473 43.3651121,6.85124079 M44.4545784,6.81395874 C44.4545784,7.86908386 44.1540375,8.71692188 43.5589592,9.3524419 C42.9651443,9.99041659 42.1627544,10.3094283 41.154244,10.3094283 C40.1592952,10.3094283 39.3678907,9.99041659 38.7876129,9.3524419 C38.2195362,8.73772592 37.9336992,7.92551728 37.9336992,6.91584027 C37.9336992,5.763743 38.2587867,4.87546348 38.902959,4.24485284 C39.5016829,3.65966598 40.3040728,3.36520114 41.3088406,3.36520114 C42.2965226,3.36520114 43.0670258,3.67310598 43.6215656,4.28293688 C44.1736752,4.89636475 44.4545784,5.74048427 44.4545784,6.81395874" id="Shape"/>
                    <path d="M49.1256956,1.27752916 C48.9171202,1.16220764 48.6853108,1.10331954 48.4214686,1.10331954 C47.6791576,1.10331954 47.3110768,1.57070589 47.3110768,2.5068882 L47.3110768,3.52764773 L48.8631415,3.52764773 L48.8631415,4.42574601 L47.3110768,4.42574601 L47.3110768,10.1504085 L46.2498756,10.1504085 L46.2498756,4.42574601 L45.1235889,4.42574601 L45.1235889,3.52764773 L46.2498756,3.52764773 L46.2498756,2.45417326 C46.2498756,1.72530235 46.4731545,1.15357979 46.9271254,0.741338762 C47.3160832,0.383076471 47.7920245,0.205221274 48.3576712,0.205221274 C48.6853108,0.205221274 48.9405004,0.244496212 49.1256956,0.320567101 L49.1256956,1.27752916 L49.1256956,1.27752916 Z" id="Path"/>
                    <path d="M53.3095944,10.0838647 C53.059314,10.2274515 52.7255985,10.2986131 52.3133574,10.2986131 C51.1576388,10.2986131 50.579816,9.64710113 50.579816,8.3441259 L50.579816,4.42671816 L49.4437109,4.42671816 L49.4437109,3.5273561 L50.579816,3.5273561 L50.579816,1.91159096 C50.918441,1.80480007 51.2705057,1.68828766 51.6423054,1.56805677 L51.6423054,3.5273561 L53.3095944,3.5273561 L53.3095944,4.42671816 L51.6423054,4.42671816 L51.6423054,8.16384032 C51.6423054,8.60796793 51.7149249,8.92569149 51.8667753,9.10971984 C52.0201806,9.29992138 52.2704613,9.39317506 52.6238142,9.39317506 C52.8875589,9.39317506 53.1157473,9.32249962 53.3095944,9.17969049 L53.3095944,10.0838647 L53.3095944,10.0838647 Z" id="Path"/>
                </g>
                <g id="Group" transform="translate(0.000000, 48.121521)" fill="#000000">
                    <path d="M4.02431773,22.8742976 C4.02431773,23.3932323 3.83910576,23.8422693 3.46485401,24.2214329 C3.09187821,24.5993083 2.63910816,24.7895341 2.10791218,24.7895341 C1.58888756,24.7895341 1.14720734,24.5993083 0.785323777,24.2214329 C0.423343004,23.8422693 0.243037984,23.3932323 0.243037984,22.8742976 C0.243037984,22.3406591 0.423343004,21.890334 0.785323777,21.517368 C1.14720734,21.1431137 1.58888756,20.9578945 2.10791218,20.9578945 C2.63910816,20.9578945 3.09187821,21.1456657 3.46485401,21.524732 C3.83910576,21.9038956 4.02431773,22.3540991 4.02431773,22.8742976" id="Path"/>
                    <path d="M27.7593514,24.3994825 L24.3019902,24.3994825 L11.7521601,5.01832121 C11.4588837,4.55210145 11.2061461,4.04536726 10.9914876,3.49206698 L10.8883302,3.49206698 C10.977649,4.01100169 11.0233863,5.12501489 11.0233863,6.83167623 L11.0233863,24.3994825 L8.17327019,24.3994825 L8.17327019,0.0837751932 L11.8723958,0.0837751932 L24.0468004,19.1594863 C24.5314667,19.9164281 24.8626303,20.4586945 25.0307639,20.7850702 L25.0984743,20.7850702 C24.9856075,20.0857284 24.9268166,18.8931896 24.9268166,17.2099085 L24.9268166,0.0837751932 L27.7596673,0.0837751932 L27.7596673,24.3994825 L27.7593514,24.3994825 Z" id="Path"/>
                    <polygon id="Path" points="46.0308255 24.3994825 33.143542 24.3994825 33.143542 0.0837751932 45.4713522 0.0837751932 45.4713522 2.66024517 35.991218 2.66024517 35.991218 10.749084 44.775753 10.749084 44.775753 13.3268421 35.991218 13.3268421 35.991218 21.8218216 46.0308255 21.8218216"/>
                    <polygon id="Path" points="65.5784921 2.66053682 58.5742589 2.66053682 58.5742589 24.3998714 55.7254162 24.3998714 55.7254162 2.66053682 48.7075972 2.66053682 48.7075972 0.0829002564 65.5784921 0.0829002564"/>
                </g>
                <g id="Group" transform="translate(0.243038, 0.000000)">
                    <path d="M26.5498485,6.20655823 C29.2992886,14.6143844 30.3409251,29.6131819 38.3807433,29.6131819 L38.3807433,29.6131819 C38.9929557,29.6131819 39.6113173,29.5532974 40.2321337,29.4352295 L40.2321337,29.4352295 C32.9235439,27.7311201 32.0573566,12.8954739 27.5976096,5.21267868 L27.5976096,5.21267868 C27.2479265,5.53047517 26.9007225,5.86173593 26.5498485,6.20655823" id="Path" fill="url(#linearGradient-1)"/>
                    <path d="M27.5976096,5.21267868 C32.0573566,12.8954739 32.9235439,27.7311201 40.2321337,29.4352295 L40.2321337,29.4352295 C40.8063109,29.3297267 41.3817277,29.1702209 41.9583596,28.9690098 L41.9583596,28.9690098 C35.398181,25.7545651 33.5848261,11.3483913 28.5202304,4.41274347 L28.5202304,4.41274347 C28.2134922,4.66803058 27.905563,4.93549388 27.5976096,5.21267868" id="Path" fill="url(#linearGradient-2)"/>
                    <path d="M34.0233638,0.643637495 C33.4123663,0.643637495 32.7927409,0.703497751 32.1707581,0.821589906 C30.5438862,1.12830384 28.8913251,1.82881223 27.2252025,2.8888467 C27.6803397,3.33788368 28.1133848,3.85190901 28.5207165,4.41264627 C30.2150802,3.00662289 31.8983854,1.9674897 33.5755906,1.34295499 C34.2049376,1.10985726 34.8319268,0.934456747 35.4612737,0.819135222 C35.0073275,0.703692181 34.5288341,0.643637495 34.0233638,0.643637495" id="Path" fill="#14559A"/>
                    <path d="M47.0794129,26.0060122 C47.7505138,25.4723737 48.422854,24.8821802 49.0964096,24.2381296 C46.3027851,15.8694568 45.3028782,0.656008127 37.2066024,0.656008127 C36.6275157,0.656008127 36.0435197,0.709986862 35.4607391,0.817944336 C42.8355809,2.65220061 43.7802938,18.6974711 47.0794129,26.0060122" id="Path" fill="url(#linearGradient-3)"/>
                    <path d="M35.4609821,0.818527629 C35.0070356,0.703206103 34.5285668,0.643151417 34.0230722,0.643151417 L37.2068697,0.654817241 C36.627759,0.654817241 36.0437627,0.708795976 35.4609821,0.818041551" id="Path" fill="#3092C4"/>
                    <path d="M46.9380133,27.783835 C46.6214809,27.4820305 46.3209399,27.1507697 46.0252113,26.7974168 C44.6633481,27.7617429 43.3064183,28.4929713 41.9581166,28.9690098 C42.4377764,29.2033956 42.9407921,29.3776295 43.4745521,29.485587 C43.8879596,29.5699941 44.3161926,29.6131819 44.7664203,29.6131819 C46.2792102,29.6131819 47.4753946,29.4340629 48.4936996,28.945751 C47.9330596,28.6426584 47.4189613,28.2500548 46.9380133,27.783835" id="Path" fill="#1969BC"/>
                    <path d="M33.5750074,1.34434031 C40.1806096,4.79924677 40.7547868,20.444574 46.0255029,26.7974168 L46.0255029,26.7974168 C46.3788558,26.5484 46.7285146,26.2845823 47.0781733,26.0060122 L47.0781733,26.0060122 C43.7790785,18.6974711 42.8355809,2.65091251 35.4619784,0.817944336 L35.4619784,0.817944336 C34.8325832,0.935720542 34.2044027,1.11005169 33.5750074,1.34434031" id="Path" fill="url(#linearGradient-4)"/>
                    <path d="M28.5202304,4.41274347 C33.5848261,11.3483913 35.398181,25.7545651 41.9583596,28.9690098 L41.9583596,28.9690098 C43.3067099,28.4929713 44.663664,27.7617429 46.0255029,26.7974168 L46.0255029,26.7974168 C40.7547868,20.444574 40.1806096,4.79924677 33.5750074,1.34434031 L33.5750074,1.34434031 C31.8978508,1.96758691 30.2145696,3.00672012 28.5202304,4.41274347" id="Path" fill="url(#linearGradient-5)"/>
                    <path d="M23.309496,6.00405897 C22.5156853,7.79906461 21.7047162,10.1583072 20.7244225,13.2378172 C22.6739517,10.4907589 24.6173563,8.12412791 26.5497027,6.20655823 C26.2834789,5.3881764 25.9976176,4.633665 25.6896642,3.96125182 C24.8995477,4.56614904 24.1032824,5.24711718 23.309496,6.00405897" id="Path" fill="url(#linearGradient-6)"/>
                    <path d="M26.3935751,3.44370242 C26.1604531,3.61054799 25.9261645,3.78113634 25.6906121,3.96144625 C25.9985169,4.6337865 26.2831387,5.38837083 26.5494354,6.20665543 C26.9002364,5.86312124 27.2486557,5.5306696 27.5970992,5.21287311 C27.2229422,4.56996474 26.8254293,3.97615003 26.3935751,3.44370242" id="Path" fill="#2B74B1"/>
                    <path d="M27.2252025,2.8888467 C26.9479205,3.06434442 26.6719265,3.24953938 26.3933807,3.44338646 C26.8252349,3.9758584 27.2227478,4.56967308 27.5981929,5.21384526 C27.9061706,4.93529945 28.2140754,4.66664524 28.5208137,4.41264627 C28.113482,3.85200624 27.6804369,3.33788368 27.2252025,2.8888467" id="Path" fill="#125A9E"/>
                    <path d="M72.281018,0.00337822798 C68.5450866,14.4107186 60.7420605,25.9827534 54.2002801,28.9003029 L54.187885,28.9003029 C54.0688935,28.9542817 53.9510931,29.0033753 53.8345563,29.0511566 C53.8185159,29.0608781 53.8039335,29.0620933 53.791563,29.0679262 C53.7571974,29.0817794 53.725311,29.092473 53.6909454,29.1062047 C53.6749047,29.1159262 53.6603226,29.1190857 53.6456187,29.1249186 C53.590449,29.1446047 53.5364217,29.1612528 53.482443,29.1828346 C53.4591114,29.1925561 53.437092,29.198632 53.4149028,29.2064093 C53.3903559,29.2161308 53.3620905,29.2251232 53.3339226,29.2329247 C53.3094,29.2426462 53.2836867,29.2496943 53.255397,29.260388 C53.2320654,29.2701095 53.2075185,29.2742412 53.1855234,29.2839627 C53.1376206,29.2978159 53.0935578,29.3094817 53.0456553,29.3261541 C53.025969,29.3261541 53.0076684,29.3368477 52.9867671,29.3419516 C52.957311,29.3516731 52.9241361,29.3587212 52.8922497,29.3674705 C52.8701331,29.377192 52.8518082,29.3803516 52.828452,29.3852123 C52.7952774,29.3949338 52.7584572,29.4039262 52.7253798,29.4117277 C52.6812198,29.4214493 52.641969,29.4304417 52.6002396,29.4392153 C52.8959196,29.5484366 53.2038729,29.6036062 53.5363731,29.6036062 C59.7395289,29.6036062 65.9941115,18.4868058 76.3429848,1.84741111e-13 L72.2795354,1.84741111e-13 L72.281018,0.00337822798 Z" id="Path" fill="url(#linearGradient-7)"/>
                    <path d="M19.3773115,1.22831397 C19.3812002,1.22831397 19.3860609,1.21859245 19.3884913,1.21859245 C19.3933521,1.21859245 19.4008862,1.21859245 19.4033166,1.20887093 L19.4110938,1.20887093 C19.4454351,1.19720511 19.477346,1.18335195 19.5116872,1.17059245 C19.5204366,1.17059245 19.5250543,1.17059245 19.5313733,1.16087093 C19.5401227,1.16087093 19.548629,1.15114941 19.557184,1.14993422 C19.5940042,1.1382684 19.6308002,1.12441523 19.6651658,1.11165574 L19.6709987,1.11165574 C19.7532427,1.08713321 19.829265,1.05670485 19.9090058,1.0282451 C19.9201855,1.0282451 19.9311222,1.01852358 19.9445379,1.01852358 C19.9777126,1.00782991 20.0120782,0.995921053 20.0463708,0.988095228 C20.0624113,0.97837371 20.0782817,0.97837371 20.0929855,0.973269912 C20.1285177,0.96257624 20.1629805,0.95066738 20.1960579,0.942841555 C20.2108832,0.942841555 20.2243232,0.933120037 20.2353085,0.932147884 C20.3494149,0.900747378 20.4622817,0.871291175 20.5763881,0.843803578 C20.5924286,0.843803578 20.6058443,0.834082059 20.6230027,0.833109906 C20.6560802,0.823388388 20.6868245,0.81828459 20.722381,0.81342383 C20.7372063,0.803702309 20.7542919,0.803702309 20.7714747,0.798598514 C20.8045521,0.788876992 20.8364387,0.787904842 20.8720681,0.779884588 L20.8953997,0.779884588 C20.9641066,0.766031421 21.0340529,0.7543656 21.1027597,0.741606104 L21.144465,0.741606104 C21.1775425,0.731884586 21.2069987,0.730912433 21.2401734,0.724836485 C21.2584013,0.724836485 21.2769694,0.715114966 21.2941521,0.715114966 C21.3247749,0.715114966 21.3554949,0.705393445 21.3861177,0.7012618 C21.4021582,0.7012618 21.4180043,0.7012618 21.4364752,0.691540281 C21.5088033,0.68181876 21.5836833,0.677930154 21.6597542,0.671854203 C21.4450544,0.651195974 21.2242058,0.637488634 20.9996873,0.637488634 C14.0137743,0.637488634 4.38881393,13.599555 0.0529798503,30.3858726 L0.888493403,30.3858726 C2.27610662,27.9112841 3.522629,25.5703666 4.66241152,23.3729629 C7.698967,11.4832045 13.8837247,3.37463101 19.377749,1.22639397" id="Path" fill="url(#linearGradient-8)"/>
                    <path d="M23.3095689,6.00405897 C24.1034039,5.24711718 24.8996206,4.56614904 25.6897371,3.96134902 C25.5094273,3.56629076 25.3229442,3.20066443 25.1228996,2.86568518 C24.483734,3.64107356 23.8997381,4.66431208 23.3095689,6.00405897" id="Path" fill="#0D82CA"/>
                    <path d="M23.8834545,1.32657423 C24.3398555,1.70935905 24.7483538,2.23573072 25.122608,2.86636568 C25.2403842,2.72158796 25.3594485,2.58781985 25.483325,2.46267959 C24.9643903,1.97808615 24.403653,1.58057323 23.7951102,1.28122334 C23.8196571,1.29483347 23.8441796,1.30577018 23.8696986,1.31656107 C23.8696986,1.31656107 23.8794201,1.32628258 23.8835517,1.32628258" id="Path" fill="#0D82CA"/>
                    <path d="M4.66209802,23.3743969 C11.0321163,11.0993017 14.0502689,3.33061684 19.3774331,1.22773068 L19.3774331,1.22773068 C13.8846385,3.37732873 7.69865347,11.485805 4.66209802,23.3743969" id="Path" fill="url(#linearGradient-9)"/>
                    <path d="M25.4829118,2.46236364 C25.3590596,2.588792 25.2412834,2.72129631 25.1222191,2.86607404 C25.3222394,3.20095609 25.5086495,3.56539154 25.6903204,3.96164068 C25.9258728,3.78133077 26.1601614,3.61074242 26.3932835,3.44389685 C26.1050161,3.08808924 25.8007326,2.75809226 25.4829118,2.46236364" id="Path" fill="#127BCA"/>
                    <path d="M7.5538806,30.3321369 L7.5538806,30.3321369 C7.51462026,30.3418584 7.47535989,30.3418584 7.43855178,30.34599 L7.41645962,30.34599 C7.38328496,30.34599 7.34893154,30.3557115 7.31830874,30.3557115 L7.30231685,30.3557115 C7.22261741,30.365433 7.14404809,30.365433 7.06797961,30.3715089 L7.04344252,30.3715089 C13.4907566,30.1911021 16.4377428,26.9630958 17.9001996,22.2812849 C19.0117581,18.7319339 19.9245845,15.7419591 20.7245197,13.2330051 C18.0241247,17.0339247 15.3114562,21.5647847 12.5840839,26.6404628 C11.2688547,29.0868832 9.26902396,30.1088337 7.55382957,30.3273246" id="Path" fill="url(#linearGradient-10)"/>
                    <path d="M7.5538806,30.3296823 L7.5538806,30.3296823 C9.26907499,30.1111911 11.2689082,29.0904315 12.584135,26.6428203 L12.584135,26.6428203 C15.3115048,21.5684059 18.0253885,17.0362822 20.7233288,13.2353625 L20.7233288,13.2353625 C21.7048377,10.1545887 22.5145917,7.79660992 23.3096175,6.00160428 L23.3096175,6.00160428 C17.9321591,11.120203 12.533831,19.6311988 7.5538806,30.3272274" id="Path" fill="url(#linearGradient-11)"/>
                    <path d="M4.66179421,23.3746885 C3.52206029,25.5720922 2.27554034,27.9130097 0.887876087,30.3875982 L3.31839688,30.3875982 C3.6398438,27.930071 4.09624726,25.586723 4.66179421,23.3758551" id="Path" fill="#05A1E6"/>
                    <path d="M21.4361592,0.69781066 C21.4164732,0.69781066 21.4017937,0.707532181 21.3846352,0.707532181 L21.3846352,0.707532181 C21.355179,0.7172537 21.324459,0.7172537 21.2938362,0.720413195 L21.2938362,0.720413195 C21.2756083,0.720413195 21.258304,0.720413195 21.2398574,0.730134713 L21.2398574,0.730134713 C21.2066828,0.739856231 21.17606,0.740828384 21.1441491,0.746904333 L21.1441491,0.746904333 C21.1293238,0.746904333 21.1147172,0.746904333 21.1024438,0.756625854 L21.1024438,0.756625854 C21.0324488,0.768291676 20.9637906,0.781172689 20.8950838,0.792935729 L20.8950838,0.792935729 L20.8717521,0.792935729 L20.8717521,0.792935729 C20.83622,0.802657247 20.8042362,0.807761045 20.7711587,0.812621804 L20.7711587,0.812621804 C20.753903,0.822343323 20.7367931,0.822343323 20.7208012,0.826231932 L20.7208012,0.826231932 C20.6877238,0.83595345 20.6545491,0.840085095 20.6226625,0.845918008 L20.6226625,0.845918008 C20.6054068,0.855639529 20.5920397,0.855639529 20.5760235,0.856611679 L20.5760235,0.856611679 C20.4619415,0.884099276 20.3490503,0.913555479 20.234944,0.944955986 L20.234944,0.944955986 C20.2227921,0.944955986 20.2104215,0.954677507 20.1956934,0.95662181 L20.1956934,0.95662181 C20.1613521,0.966343328 20.1281774,0.976307886 20.0926452,0.987050166 L20.0926452,0.987050166 C20.0778199,0.996771685 20.0607344,0.996771685 20.0460063,1.00066029 L20.0460063,1.00066029 C20.011665,1.01038181 19.9772994,1.02034637 19.9441734,1.03108865 L19.9441734,1.03108865 C19.9308063,1.03108865 19.9196508,1.04081017 19.9073774,1.04081017 L19.9073774,1.04081017 C19.8288518,1.07024207 19.7515658,1.09969827 19.6705855,1.12424511 L19.6705855,1.12424511 L19.6705855,1.12424511 L19.6705855,1.12424511 C19.6362442,1.13493878 19.599424,1.14876764 19.562628,1.16152713 L19.562628,1.16152713 C19.5478027,1.17124866 19.5343627,1.17343599 19.5172771,1.18024106 L19.5172771,1.18024106 C19.4829115,1.19093473 19.4485703,1.20478789 19.4166594,1.21754739 L19.4166594,1.21754739 C19.4045075,1.22726891 19.3921369,1.22824106 19.3835819,1.23334486 L19.3835819,1.23334486 C14.0564299,3.33623101 11.0382773,11.1049159 4.66825903,23.3800111 L4.66825903,23.3800111 C4.10266102,25.590879 3.64503023,27.9342269 3.3248131,30.3916569 L3.3248131,30.3916569 L3.66588774,30.3916569 C4.62654399,30.3916569 4.89768688,30.3819354 6.00311598,30.3819354 L6.00311598,30.3819354 L6.05955183,30.3819354 L6.22395487,30.3819354 L6.28039315,30.3819354 L6.29638507,30.3819354 L6.35282092,30.3819354 L6.38471965,30.3819354 L6.4068118,30.3819354 L6.4509791,30.3819354 L6.58839278,30.3819354 L6.72580401,30.3819354 L6.8411304,30.3819354 L6.8717556,30.3819354 L7.07419168,30.3819354 L7.07419168,30.3819354 C7.1502577,30.3722139 7.22878085,30.3722139 7.30852889,30.366138 L7.30852889,30.366138 L7.323257,30.366138 L7.323257,30.366138 C7.35643169,30.366138 7.38950915,30.3564165 7.42140788,30.3564165 L7.42140788,30.3564165 L7.44466662,30.3564165 L7.44466662,30.3564165 C7.48019634,30.3564165 7.52073264,30.346695 7.55999301,30.3425631 L7.55999301,30.3425631 C12.5399458,19.6465345 17.9382593,11.1355387 23.3157178,6.01693998 L23.3157178,6.01693998 C23.9070778,4.67719309 24.4898586,3.65395458 25.1278576,2.87982999 L25.1278576,2.87982999 C24.7548672,2.24921933 24.3463204,1.72165678 23.8899193,1.33877474 L23.8899193,1.33877474 C23.8899193,1.33877474 23.8775244,1.33877474 23.8765522,1.32905322 L23.8765522,1.32905322 C23.8507416,1.31835955 23.8263163,1.30547853 23.8005057,1.29274334 L23.8005057,1.29274334 C23.7746707,1.27889018 23.7526029,1.26819651 23.7256986,1.25446486 L23.7256986,1.25446486 C23.7023669,1.24474334 23.6753654,1.23186233 23.6520824,1.21912714 L23.6520824,1.21912714 C23.6201958,1.20940562 23.5943851,1.19555245 23.566217,1.18279296 L23.566217,1.18279296 C23.5428854,1.17307144 23.5220327,1.16310688 23.4986768,1.15336106 L23.4986768,1.15336106 C23.450774,1.13464713 23.4029927,1.11508258 23.3575932,1.09447296 L23.3575932,1.09447296 C23.336692,1.08475143 23.3171517,1.07964764 23.297417,1.07187042 L23.297417,1.07187042 C23.2643395,1.05996156 23.2262555,1.04438283 23.1919142,1.02965472 L23.1919142,1.02965472 C23.1746585,1.01993321 23.155094,1.0179889 23.1354808,1.0109408 L23.1354808,1.0109408 C23.0852206,0.99417118 23.0361026,0.976599534 22.9894636,0.960874976 L22.9894636,0.960874976 L22.9773117,0.960874976 L22.9773117,0.960874976 C22.920854,0.94216105 22.86566,0.928502314 22.8079871,0.912777759 L22.8079871,0.912777759 C22.79462,0.903056238 22.7834403,0.903056238 22.7700003,0.901111935 L22.7700003,0.901111935 C22.7196428,0.887258768 22.6754828,0.873624338 22.6276772,0.860864845 L22.6276772,0.860864845 C22.6155253,0.860864845 22.6043456,0.851143324 22.5945998,0.851143324 L22.5945998,0.851143324 C22.4792783,0.820714971 22.3602626,0.796192436 22.2400317,0.773614207 L22.2400317,0.773614207 C22.2276367,0.773614207 22.2155091,0.763892688 22.2032357,0.763892688 L22.2032357,0.763892688 C22.1517117,0.75417117 22.1014028,0.745178763 22.0498787,0.739345853 L22.0498787,0.739345853 C22.0374838,0.729624332 22.0301927,0.729624332 22.019256,0.729624332 L22.019256,0.729624332 C21.9579132,0.719902814 21.8977856,0.712854712 21.837658,0.706049647 L21.837658,0.706049647 L21.8057714,0.706049647 L21.8057714,0.706049647 C21.756702,0.696328129 21.7113511,0.695355976 21.665903,0.69025218 L21.665903,0.69025218 C21.5885683,0.699973699 21.5150007,0.704105344 21.4425997,0.710910409" id="Path" fill="url(#linearGradient-12)"/>
                    <path d="M57.688337,7.97935019 C56.4626719,11.9054101 55.4701048,15.1444016 54.6063964,17.8092159 L54.6063964,17.8092159 C57.9692888,13.1813838 61.2818964,7.35972485 64.4362865,0.64137724 L64.4362865,0.64137724 C60.7567887,1.79699855 58.7937707,4.44227259 57.688337,7.97935019" id="Path" fill="url(#linearGradient-13)"/>
                    <path d="M54.7131145,28.6549318 C54.5413597,28.7422796 54.3696046,28.8254229 54.2002801,28.9003029 C60.7420605,25.9827534 68.5450866,14.4107186 72.281018,0.00337822798 L71.523979,0.00337822798 C62.940655,15.335794 60.1801566,25.5999686 54.7131145,28.6549318" id="Path" fill="url(#linearGradient-14)"/>
                    <path d="M50.4414302,27.3667818 C51.864612,25.629522 53.0239761,22.6764404 54.6067612,17.8093131 C52.7810598,20.3170762 50.9432795,22.4727746 49.1041139,24.2308627 C49.1041139,24.2405843 49.1041139,24.2405843 49.0943924,24.2466602 C49.4956481,25.4490177 49.9360328,26.5102188 50.4378818,27.3665874" id="Path" fill="#079AE1"/>
                    <path d="M50.4414302,27.3667818 C49.956764,27.9581662 49.4440025,28.408467 48.8734465,28.7421824 C48.748306,28.8148265 48.6219994,28.8832417 48.4931161,28.9458483 C49.0955831,29.2709359 49.7530982,29.4881389 50.4892115,29.5751951 L50.4892115,29.5751951 C50.597096,29.5858888 50.703887,29.5958533 50.8155872,29.6036549 L50.8352732,29.6036549 C50.885339,29.6036549 50.9383457,29.6036549 50.9923244,29.6133764 L51.0139547,29.6133764 L51.1747244,29.6133764 L51.3477674,29.6133764 L51.4017704,29.6133764 L51.524456,29.6133764 C51.5441423,29.6133764 51.5646788,29.6133764 51.5843162,29.6036549 C51.6225948,29.6036549 51.6628419,29.6036549 51.7020927,29.5939333 L51.7159458,29.5939333 L51.7601058,29.5939333 C51.8003529,29.5939333 51.8445129,29.5842118 51.8877006,29.5800802 L51.8974224,29.5800802 C51.9103032,29.5800802 51.9239133,29.5703586 51.9366729,29.5703586 C51.9818292,29.5606371 52.0289544,29.5565055 52.07292,29.5497004 L52.1131671,29.5497004 C52.1632086,29.5399789 52.2149514,29.5339029 52.2664755,29.5241814 L52.276197,29.5241814 L52.2910224,29.5241814 C52.3940946,29.5044953 52.4946882,29.4849308 52.5964725,29.4594118 C51.7523772,29.1502189 51.0456956,28.4214452 50.4371528,27.3835028" id="Path" fill="#1969BC"/>
                    <path d="M38.3808891,29.6133764 C38.9931504,29.6133764 39.611512,29.5535161 40.2323038,29.4342574 C40.8065053,29.3300184 41.3818735,29.1704153 41.9585054,28.9692042 C42.4382624,29.20359 42.9412781,29.3778239 43.4737499,29.4857814 C43.887182,29.5701885 44.3165814,29.6133764 44.7669066,29.6133764 L38.3808891,29.6133764 L38.3808891,29.6133764 Z" id="Path" fill="#1E5CB3"/>
                    <path d="M44.7670038,29.6133764 C46.2785298,29.6133764 47.4759781,29.4342574 48.4931161,28.9459455 C49.0954859,29.2710331 49.7530982,29.4882361 50.4892115,29.5753895 L50.4892115,29.5753895 C50.5971932,29.5860832 50.7039842,29.5960478 50.8155872,29.6038493 L50.8352732,29.6038493 C50.885339,29.6038493 50.9383457,29.6038493 50.9923244,29.6135708 L51.014927,29.6135708 L51.1756967,29.6135708 L44.7626775,29.6135708 L44.7670038,29.6133764 Z" id="Path" fill="#1E5CB3"/>
                    <path d="M51.1795124,29.6133764 L51.3537461,29.6133764 L51.4077248,29.6133764 L51.529244,29.6133764 C51.5499023,29.6133764 51.5694668,29.6133764 51.5891042,29.6036549 C51.6273828,29.6036549 51.6676299,29.6036549 51.7081686,29.5939333 L51.7210497,29.5939333 L51.766206,29.5939333 C51.8064288,29.5939333 51.8506131,29.5842118 51.8926101,29.5803232 L51.9033039,29.5803232 C51.9161847,29.5803232 51.9288228,29.5706017 51.9415824,29.5706017 C51.9867387,29.5608802 52.0338639,29.5569916 52.077732,29.5499435 C52.0925574,29.5499435 52.1042232,29.5499435 52.1199234,29.5402219 C52.1699892,29.5305004 52.2218049,29.5253966 52.2733533,29.5156994 L52.2830748,29.5156994 L52.2979002,29.5156994 C52.4009727,29.4960133 52.501566,29.4764245 52.6033503,29.4509055 L52.6033503,29.4509055 C52.8989817,29.5600538 53.2069839,29.6153207 53.5394112,29.6153207 L51.1813352,29.6250422 L51.1795124,29.6133764 Z" id="Path" fill="#1D60B5"/>
                    <path d="M49.0983296,24.2468546 L49.0983296,24.2371331 C48.4247983,24.8812081 47.7524581,25.4714015 47.0813086,26.00504 C46.7304103,26.2835859 46.3808001,26.5473307 46.0274715,26.7964446 C46.3231029,27.1497732 46.6237411,27.481034 46.9402738,27.7828629 C47.4212215,28.2489854 47.9352226,28.6416862 48.4959598,28.9446817 C48.6235546,28.8818563 48.7511497,28.8133439 48.875026,28.7410158 C49.4467487,28.4073004 49.9596074,27.9570725 50.4442739,27.3657125 C49.9424246,26.5093438 49.5020156,25.4480213 49.1007842,24.2456881" id="Path" fill="#175FAB"/>
                    <path d="M69.1266522,0.00337822798 L65.944094,0.00337822798 L65.6275373,0.00337822798 L65.6275373,0.00337822798 L65.3281874,0.00337822798 L65.3281874,0.00337822798 L65.3165216,0.00337822798 C65.1104009,0.0130997474 64.9104779,0.0201478489 64.712888,0.0328344316 L64.712888,0.0328344316 C64.6196588,0.232878997 64.5239504,0.432899258 64.4318876,0.634110406 L64.4318876,0.634110406 C61.2775947,7.35245801 57.9649871,13.174117 54.6020947,17.801949 L54.6020947,17.801949 C53.0206224,22.6689791 51.8599944,25.622158 50.4367883,27.3594421 L50.4367883,27.3594421 C51.0453311,28.3973844 51.753252,29.1273247 52.5948927,29.4365176 L52.5948927,29.4365176 C52.6194396,29.4267961 52.6390527,29.4267961 52.6611447,29.4216923 L52.6611447,29.4216923 L52.6747548,29.4216923 L52.6747548,29.4216923 C52.6895802,29.4216923 52.7053776,29.4119708 52.721394,29.4119708 L52.721394,29.4119708 C52.7557353,29.4022493 52.7925555,29.3961733 52.8268968,29.3854796 L52.8268968,29.3854796 C52.8490131,29.3757581 52.8673383,29.374786 52.8895275,29.3677379 L52.8895275,29.3677379 C52.9214142,29.3580163 52.9544916,29.3509683 52.9839477,29.343191 L52.9839477,29.343191 C53.003634,29.3334695 53.0231985,29.33031 53.0428359,29.3264214 L53.0428359,29.3264214 C53.0919054,29.3106239 53.1360654,29.2989338 53.1827043,29.2842057 L53.1827043,29.2842057 C53.2048206,29.2744842 53.2281525,29.2664639 53.2526748,29.260631 L53.2526748,29.260631 C53.2796763,29.2509095 53.3066535,29.2438614 53.3312004,29.2321713 L53.3312004,29.2321713 C53.3594658,29.2224498 53.387634,29.217346 53.4121806,29.2066523 L53.4121806,29.2066523 C53.4342972,29.1969308 53.4575316,29.1908548 53.4784329,29.1821055 L53.4784329,29.1821055 C53.5335783,29.1624194 53.5876299,29.1457956 53.6428239,29.1241895 L53.6428239,29.1241895 C53.657649,29.1241895 53.67228,29.1105794 53.6882718,29.1074199 L53.6882718,29.1074199 C53.7213492,29.0935667 53.7557148,29.082873 53.7888897,29.068145 L53.7888897,29.068145 C53.8010415,29.0584234 53.8158669,29.0574513 53.8317615,29.0523475 L53.8317615,29.0523475 C53.9471073,29.0042503 54.0660987,28.9551809 54.1851145,28.9014938 L54.1851145,28.9014938 L54.1975093,28.9014938 L54.1975093,28.9014938 C54.3668098,28.8269054 54.5385889,28.7431789 54.7091287,28.6561227 L54.7091287,28.6561227 C60.1773861,25.6011595 62.9379331,15.3369849 71.5212568,0.00456911409 L71.5212568,0.00456911409 L69.123906,0.00456911409 L69.1266522,0.00337822798 Z" id="Path" fill="url(#linearGradient-15)"/>
                    <path d="M21.6597056,0.677103825 C21.6733157,0.677103825 21.6855162,0.677103825 21.6989562,0.686825343 C21.7320337,0.686825343 21.7652083,0.686825343 21.7983344,0.697519015 L21.8315091,0.697519015 C21.8915881,0.707240533 21.95174,0.712344331 22.0130828,0.7210937 C22.0242626,0.7210937 22.0339841,0.7210937 22.0437056,0.730815218 C22.0939658,0.740536739 22.1455385,0.748556991 22.1970626,0.756334206 C22.2082423,0.756334206 22.2228975,0.766055727 22.2351466,0.766055727 C22.3529471,0.789630412 22.473178,0.814152944 22.5884995,0.844581301 C22.5994362,0.844581301 22.610616,0.854302819 22.6204104,0.854302819 C22.6694798,0.865968643 22.7136398,0.88079396 22.7627092,0.894525606 C22.7775345,0.894525606 22.7884226,0.904247124 22.8019841,0.906434466 C22.8596813,0.921259783 22.9136358,0.935890669 22.9700692,0.954531683 C22.9724995,0.954531683 22.9759021,0.954531683 22.9824641,0.964253204 C23.0302454,0.978835482 23.079339,0.997622317 23.1296722,1.01429472 C23.1493583,1.02401624 23.1676591,1.02814789 23.1861056,1.03300865 C23.2204712,1.04783397 23.2585552,1.06244055 23.2916327,1.0761965 C23.3113188,1.0761965 23.3308834,1.08980663 23.3516874,1.09685473 C23.3970383,1.11751296 23.4449411,1.13610536 23.4915558,1.15574283 C23.5161026,1.16546435 23.5369067,1.17640106 23.5602626,1.18517473 C23.5872641,1.19902789 23.6154322,1.21169018 23.6448884,1.22150891 C23.669411,1.23317473 23.6964125,1.24603144 23.7196712,1.25682233 C23.7454818,1.27067549 23.7699315,1.28136916 23.7945512,1.29510081 C24.403094,1.594475 24.9637827,1.99325172 25.482766,2.47665427 C25.6741584,2.27544313 25.87413,2.09503603 26.08149,1.93309982 C24.9465999,1.12825523 23.6608317,0.669399522 22.1775223,0.669399522 C22.005743,0.669399522 21.8339881,0.67912104 21.6597785,0.692002053" id="Path" fill="#7DCBEC"/>
                    <path d="M25.4829361,2.46236364 C25.8007083,2.75799505 26.1049675,3.08808924 26.3932835,3.44389685 C26.6717807,3.25004974 26.9478475,3.0635424 27.2251296,2.88933277 C26.8619579,2.52616111 26.4791731,2.19980971 26.0804207,1.91880919 C25.873085,2.07957882 25.6743285,2.26115249 25.4829361,2.46236364" id="Path" fill="#5EC5ED"/>
                    <path d="M21.6594136,1.88538943 C21.8336322,1.90011212 22.0053969,1.90624658 22.1771617,1.90624658 C23.6604732,1.90624658 24.9462551,1.44738928 26.0811294,0.643775555 C27.2785752,1.58848176 28.7263068,1.91851549 30.7371813,1.91851549 L20.9993462,1.91851549 C21.2238673,1.91851549 21.4434808,1.90501969 21.6594136,1.88538943" id="Path" fill="url(#linearGradient-16)" transform="translate(25.868264, 1.281146) scale(-1, 1) rotate(-180.000000) translate(-25.868264, -1.281146) "/>
                    <path d="M30.7371813,2.88898673 C28.7263068,2.88898673 27.2785752,2.558953 26.0811294,1.61424679 C26.4786422,1.33328871 26.8614322,1.00693566 27.224592,0.64377587 C28.8919371,1.70380985 30.5433327,2.4055916 32.1714172,2.7123144 C32.7922243,2.82886906 33.4118041,2.88898673 34.0227962,2.88898673 L30.7371813,2.88898673 L30.7371813,2.88898673 Z" id="Path" fill="url(#linearGradient-17)" transform="translate(30.051963, 1.766381) scale(-1, 1) rotate(-180.000000) translate(-30.051963, -1.766381) "/>
                    <path d="M54.6063964,17.8116706 C55.4713444,15.1444016 56.4614326,11.9066982 57.689552,7.97935019 C58.7962256,4.44100878 60.7555734,1.79583197 64.4349983,0.64137724 C64.5321893,0.44378736 64.6239605,0.240121528 64.7184779,0.0401012674 C58.7201546,0.399627358 55.9167115,3.45084773 54.5057788,7.96955576 C52.0385058,15.8584472 50.5441382,20.9721365 49.105013,24.2307655 C50.9428904,22.4738439 52.7807682,20.316979 54.6063964,17.8116706" id="Path" fill="url(#linearGradient-18)"/>
                    <polygon id="Path" fill="#000000" points="63.4063888 27.5118512 62.7266845 27.5118512 62.7266845 29.6245561 62.4494023 29.6245561 62.4494023 27.5118512 61.7672677 27.5118512 61.7672677 27.2604041 63.4063888 27.2604041"/>
                    <path d="M66.1895624,29.6241673 L65.9135687,29.6241673 L65.9135687,28.0365702 C65.9135687,27.91143 65.9232902,27.7581216 65.936171,27.5777145 L65.936171,27.5777145 C65.9076872,27.6856963 65.8841366,27.7605763 65.8625549,27.8083819 L65.0577104,29.6241673 L64.9227515,29.6241673 L64.115452,27.8219191 C64.0918774,27.7718533 64.0683514,27.6906057 64.0428322,27.5777145 L64.0331107,27.5777145 C64.0428322,27.6729368 64.0459918,27.8268284 64.0459918,28.040313 L64.0459918,29.6241673 L63.7809832,29.6241673 L63.7809832,27.2600153 L64.1465851,27.2600153 L64.8716405,28.9101217 C64.9265915,29.0340953 64.9609568,29.1297794 64.9784315,29.1935769 L64.989125,29.1935769 C65.0372222,29.0635272 65.076473,28.9665551 65.1032801,28.9027576 L65.843039,27.2600153 L66.1914824,27.2600153 L66.1914824,29.6241673 L66.1895624,29.6241673 Z" id="Path" fill="#000000"/>
                </g>
            </g>
        </g>
    </g>
</svg>