<svg xmlns="http://www.w3.org/2000/svg" width="25.623" height="25.5" viewBox="0 0 25.623 25.5">
  <path id="Path_57" data-name="Path 57" d="M20052.324,20489.5a2,2,0,0,1,0-4h2a2,2,0,1,1,0,4Zm-2.721-1.244a6.1,6.1,0,0,1-4.775-1.959,4.472,4.472,0,0,1-1.055-3.682l1.475.256a2.981,2.981,0,0,0,.715,2.447,4.669,4.669,0,0,0,3.641,1.441,1.192,1.192,0,0,0,.145-.006l.031,1.5Zm-8.6-11.041a5,5,0,0,1,3.826-4.859,8.5,8.5,0,0,1,8.5-8.355h1a8.5,8.5,0,0,1,8.492,8.3,5,5,0,0,1-1.2,9.855v-10h.014a7.386,7.386,0,0,0-7.371-7.041h-.869a7.394,7.394,0,0,0-7.391,7.385h0v9.713A5,5,0,0,1,20041,20477.213Z" transform="translate(-20041.002 -20463.998)" fill="#FFF" opacity="100"/>
</svg>
