<svg xmlns="http://www.w3.org/2000/svg" width="17.327" height="20.011" viewBox="0 0 17.327 20.011">
  <g id="Vector" fill="none" stroke-linejoin="round">
    <path d="M17.083,6.54A8.42,8.42,0,0,0,8.668,0h-.01A8.418,8.418,0,0,0,.244,6.531c-1.142,5.037,1.943,9.3,4.734,11.987a5.293,5.293,0,0,0,7.37,0C15.14,15.833,18.225,11.577,17.083,6.54ZM8.668,11.431a3.075,3.075,0,1,1,3.075-3.075A3.075,3.075,0,0,1,8.668,11.431Z" stroke="none"/>
    <path d="M 8.658547401428223 1.500001907348633 C 7.129007339477539 1.500001907348633 5.615547180175781 1.964372634887695 4.396957397460938 2.807561874389648 C 3.004437446594238 3.771112442016602 2.09931755065918 5.135542869567871 1.706887245178223 6.862232208251953 C 0.7177181243896484 11.22469234466553 3.50535774230957 15.02048301696777 6.018477439880371 17.43695259094238 C 6.73847770690918 18.12978172302246 7.679537773132324 18.51134300231934 8.668307304382324 18.51134300231934 C 9.657567977905273 18.51134300231934 10.59334754943848 18.13154220581055 11.30326747894287 17.44189262390137 C 11.30509757995605 17.44011306762695 11.3069372177124 17.43833160400391 11.30878734588623 17.43656158447266 C 13.8206672668457 15.02128219604492 16.60763740539551 11.22783279418945 15.62013721466064 6.872722625732422 C 15.22701740264893 5.142971992492676 14.32251739501953 3.776481628417969 12.93178749084473 2.811212539672852 C 11.71353721618652 1.965662002563477 10.19940757751465 1.500001907348633 8.668307304382324 1.500001907348633 L 8.658547401428223 1.500001907348633 M 8.668307304382324 12.93087196350098 C 6.145697593688965 12.93087196350098 4.09339714050293 10.87857246398926 4.09339714050293 8.355952262878418 C 4.09339714050293 5.833342552185059 6.145697593688965 3.781042098999023 8.668307304382324 3.781042098999023 C 11.19091796875 3.781042098999023 13.24321746826172 5.833342552185059 13.24321746826172 8.355952262878418 C 13.24321746826172 10.87857246398926 11.19091796875 12.93087196350098 8.668307304382324 12.93087196350098 M 8.658547401428223 1.9073486328125e-06 C 8.668307304382324 1.9073486328125e-06 8.668307304382324 1.9073486328125e-06 8.668307304382324 1.9073486328125e-06 C 12.12392711639404 1.9073486328125e-06 16.0578670501709 2.030422210693359 17.08283805847168 6.540292739868164 C 18.22494697570801 11.57729244232178 15.14026737213135 15.8333625793457 12.34844779968262 18.51781272888184 C 10.29850769042969 20.50919151306152 7.047887802124023 20.50919342041016 4.97840690612793 18.51781272888184 C 2.186587333679199 15.8333625793457 -0.8980922698974609 11.56753253936768 0.2440166473388672 6.530532836914062 C 1.268987655639648 2.020662307739258 5.212687492370605 1.9073486328125e-06 8.658547401428223 1.9073486328125e-06 Z M 8.668307304382324 11.43087291717529 C 10.3668270111084 11.43087291717529 11.74321746826172 10.05448246002197 11.74321746826172 8.355952262878418 C 11.74321746826172 6.657432556152344 10.3668270111084 5.281042098999023 8.668307304382324 5.281042098999023 C 6.96978759765625 5.281042098999023 5.59339714050293 6.657432556152344 5.59339714050293 8.355952262878418 C 5.59339714050293 10.05448246002197 6.96978759765625 11.43087291717529 8.668307304382324 11.43087291717529 Z" stroke="none" fill="#8a8aa1"/>
  </g>
</svg>
