<svg xmlns="http://www.w3.org/2000/svg" width="18.384" height="21.21" viewBox="0 0 18.384 21.21">
  <g id="Group_11597" data-name="Group 11597" transform="translate(-139.704 -318.64)">
    <path id="Vector" d="M6.95.226l-4.9,1.831A3.38,3.38,0,0,0,0,4.989v7.237a4.723,4.723,0,0,0,1.7,3.351L5.919,18.7a4.5,4.5,0,0,0,5.046,0l4.221-3.127a4.723,4.723,0,0,0,1.7-3.351V4.989a3.383,3.383,0,0,0-2.052-2.941L9.934.226A5.029,5.029,0,0,0,6.95.226Z" transform="translate(140.454 319.437)" fill="none" stroke="#091f40" stroke-linecap="round" stroke-linejoin="round" stroke-width="1.5"/>
    <path id="Vector-2" data-name="Vector" d="M0,2.493,1.492,3.986,5.478,0" transform="translate(146.152 326.534)" fill="none" stroke="#091f40" stroke-linecap="round" stroke-linejoin="round" stroke-width="1.5"/>
  </g>
</svg>
