<svg id="support-guide-fill-big" xmlns="http://www.w3.org/2000/svg" width="52.267" height="56" viewBox="0 0 52.267 56">
  <path id="Vector" d="M47.722,10.78l-17.087-9.6a9.315,9.315,0,0,0-9.061,0L4.516,10.78A8.778,8.778,0,0,0,0,18.424V37.576A8.845,8.845,0,0,0,4.516,45.22l17.087,9.6a9.315,9.315,0,0,0,9.061,0l17.087-9.6a8.778,8.778,0,0,0,4.516-7.644V18.424A8.9,8.9,0,0,0,47.722,10.78ZM23.962,16.1a2.158,2.158,0,0,1,4.315,0V30.8a2.158,2.158,0,0,1-4.315,0Zm4.8,24.864a3.223,3.223,0,0,1-.6.924,2.888,2.888,0,0,1-2.042.812,2.93,2.93,0,0,1-1.093-.224,2.981,2.981,0,0,1-.949-.588,4.085,4.085,0,0,1-.633-.924,2.7,2.7,0,0,1-.2-1.064,2.781,2.781,0,0,1,.834-1.988,2.981,2.981,0,0,1,.949-.588,2.931,2.931,0,0,1,3.135.588,2.882,2.882,0,0,1,.6.924,2.575,2.575,0,0,1,0,2.128Z" fill="#ff6464"/>
</svg>
