<svg xmlns="http://www.w3.org/2000/svg" width="408.23" height="266.3" viewBox="0 0 408.23 266.3">
  <g id="Group_15238" data-name="Group 15238" transform="translate(9211.652 -7534.7) rotate(180)">
    <path id="Path_5194" data-name="Path 5194" d="M175.414,0a11.139,11.139,0,0,0-6.821,2.332c-18.174,14.075-113.748,88.1-152.6,118.242-9.8,7.6-10.389,16.748,0,24.834,38.584,30.031,134.459,104.494,152.6,118.557a11.137,11.137,0,0,0,6.825,2.335h52.708a11.14,11.14,0,0,0,8.2-18.688c-28.36-30.768-83.436-90.526-100.61-109.2-3.088-3.358-3.271-7.233-.12-10.658,16.2-17.6,71.95-78.05,100.558-109.063A11.14,11.14,0,0,0,227.956,0Z" transform="translate(8795 -7801)" fill="#FFF"/>
    <path id="Path_5195" data-name="Path 5195" d="M173.505,138.335l59.658,65.319a8.375,8.375,0,0,0,6.186,2.728l168.742-.02a8.373,8.373,0,0,0,6.669-13.443c-16.112-21.175-45.58-59.93-45.531-60.06.068-.19,29.117-38.274,45.682-59.9a8.375,8.375,0,0,0-6.654-13.465H239.479a8.377,8.377,0,0,0-6.156,2.7l-59.79,64.818a8.376,8.376,0,0,0-.028,11.328" transform="translate(8795 -7801)" fill="#FFF"/>
  </g>
</svg>
