<svg xmlns="http://www.w3.org/2000/svg" width="13.849" height="13.847" viewBox="0 0 13.849 13.847">
  <path id="b7a37db232e39978a9bf92801e98b4d5" d="M2.6,291.18a2.086,2.086,0,0,0-2.075,2.073v9.7A2.085,2.085,0,0,0,2.6,305.027h9.7a2.086,2.086,0,0,0,2.075-2.075V294.64a.693.693,0,0,0-.2-.492l-2.774-2.772a.694.694,0,0,0-.306-.175Zm0,1.382h.7v3.462a.69.69,0,0,0,.691.688h6.925a.693.693,0,0,0,.691-.688v-2.486l1.387,1.387v8.026a.673.673,0,0,1-.691.691H2.6a.673.673,0,0,1-.688-.691v-9.7a.674.674,0,0,1,.688-.691Zm2.081,0h5.538v2.774H4.685ZM3.991,298.1a.693.693,0,0,0-.691.7v2.769a.692.692,0,0,0,.691.691h6.925a.694.694,0,0,0,.691-.691V298.8a.693.693,0,0,0-.691-.7Zm.694,1.387h5.538v1.384H4.685Z" transform="translate(-0.529 -291.18)" fill="#091f40"/>
</svg>
