<?xml version="1.0" encoding="UTF-8"?>
<!DOCTYPE svg PUBLIC "-//W3C//DTD SVG 1.1//EN" "http://www.w3.org/Graphics/SVG/1.1/DTD/svg11.dtd">
<svg xmlns="http://www.w3.org/2000/svg" version="1.1" width="200px" height="200px" style="shape-rendering:geometricPrecision; text-rendering:geometricPrecision; image-rendering:optimizeQuality; fill-rule:evenodd; clip-rule:evenodd" xmlns:xlink="http://www.w3.org/1999/xlink">
<g><path style="opacity:0.996" fill="#121111" d="M 39.5,-0.5 C 79.5,-0.5 119.5,-0.5 159.5,-0.5C 180.5,5.16667 193.833,18.5 199.5,39.5C 199.5,79.5 199.5,119.5 199.5,159.5C 193.833,180.5 180.5,193.833 159.5,199.5C 119.5,199.5 79.5,199.5 39.5,199.5C 18.5,193.833 5.16667,180.5 -0.5,159.5C -0.5,119.5 -0.5,79.5 -0.5,39.5C 5.16667,18.5 18.5,5.16667 39.5,-0.5 Z"/></g>
<g><path style="opacity:1" fill="#fff" d="M 75.5,49.5 C 82.9595,48.4485 87.6262,51.6152 89.5,59C 97.7491,63.7074 105.916,68.5407 114,73.5C 114.667,78.8333 114.667,84.1667 114,89.5C 112.333,91.1667 110.667,92.8333 109,94.5C 107.656,92.6584 106.156,90.9917 104.5,89.5C 108.466,84.9643 108.466,80.4643 104.5,76C 97.6701,72.4194 91.0035,68.5861 84.5,64.5C 77.2878,68.0627 72.6211,65.896 70.5,58C 71.1366,54.5369 72.8033,51.7035 75.5,49.5 Z"/></g>
<g><path style="opacity:1" fill="#fff" d="M 94.5,48.5 C 102.293,49.8132 109.127,53.1465 115,58.5C 115.667,60.5 115.667,62.5 115,64.5C 113.951,65.5171 112.784,65.6838 111.5,65C 104.5,60.6667 97.5,56.3333 90.5,52C 91.7305,50.5952 93.0639,49.4286 94.5,48.5 Z"/></g>
<g><path style="opacity:1" fill="#181415" d="M 76.5,52.5 C 83.9928,51.8288 86.3261,54.9954 83.5,62C 74.4114,64.1739 72.078,61.0073 76.5,52.5 Z"/></g>
<g><path style="opacity:1" fill="#fff" d="M 123.5,53.5 C 132.036,53.1996 135.87,57.1996 135,65.5C 134,67.8333 132.333,69.5 130,70.5C 129.667,80.1667 129.333,89.8333 129,99.5C 124.875,102.812 120.375,105.479 115.5,107.5C 112.959,107.119 110.626,106.286 108.5,105C 109.863,103.055 110.697,100.888 111,98.5C 115.369,100.268 119.035,99.2679 122,95.5C 122.667,86.8333 122.667,78.1667 122,69.5C 117.011,63.6023 117.511,58.2689 123.5,53.5 Z"/></g>
<g><path style="opacity:1" fill="#191415" d="M 124.5,56.5 C 132.022,56.6698 134.022,60.0031 130.5,66.5C 125.368,68.8939 122.368,67.3939 121.5,62C 121.863,59.8077 122.863,57.9744 124.5,56.5 Z"/></g>
<g><path style="opacity:1" fill="#fff" d="M 69.5,65.5 C 73.6794,65.1423 76.1794,66.8089 77,70.5C 69.4614,75.1855 61.6281,79.1855 53.5,82.5C 53.3367,80.1432 53.5034,77.8098 54,75.5C 59.1464,72.0179 64.3131,68.6845 69.5,65.5 Z"/></g>
<g><path style="opacity:1" fill="#fff" d="M 136.5,68.5 C 138.757,68.9617 140.757,69.9617 142.5,71.5C 143.63,78.4495 143.797,85.4495 143,92.5C 141.491,94.9193 139.325,95.9193 136.5,95.5C 136.5,86.5 136.5,77.5 136.5,68.5 Z"/></g>
<g><path style="opacity:1" fill="#fff" d="M 81.5,74.5 C 83.5273,74.3379 85.5273,74.5045 87.5,75C 90.8333,77 94.1667,79 97.5,81C 98.8672,83.3015 99.5339,85.8015 99.5,88.5C 97.323,88.5861 95.323,89.2528 93.5,90.5C 92.026,84.8359 88.3593,82.3359 82.5,83C 75.8333,86.6667 69.1667,90.3333 62.5,94C 61.1316,102.395 56.4649,105.395 48.5,103C 43.1667,98 43.1667,93 48.5,88C 51.562,87.2585 54.562,87.4252 57.5,88.5C 65.8912,84.3114 73.8912,79.6447 81.5,74.5 Z"/></g>
<g><path style="opacity:1" fill="#191415" d="M 50.5,90.5 C 57.0001,89.4987 59.5001,92.1653 58,98.5C 54.2552,102.566 50.9218,102.233 48,97.5C 47.162,94.5193 47.9953,92.1859 50.5,90.5 Z"/></g>
<g><path style="opacity:1" fill="#fff" d="M 80.5,92.5 C 83.5176,92.7038 86.5176,93.0371 89.5,93.5C 89.0074,95.8056 88.6741,98.139 88.5,100.5C 86.1305,100.149 83.7972,99.9822 81.5,100C 80,101.5 78.5,103 77,104.5C 76.1681,113.186 76.3348,121.853 77.5,130.5C 83.2817,136.885 82.2817,142.052 74.5,146C 67.9166,146.762 64.2499,143.762 63.5,137C 64.1959,134.442 65.5293,132.275 67.5,130.5C 68.3321,120.851 68.8321,111.184 69,101.5C 69.3742,100.584 69.8742,99.7504 70.5,99C 74.0689,97.0583 77.4022,94.8916 80.5,92.5 Z"/></g>
<g><path style="opacity:1" fill="#fff" d="M 96.5,92.5 C 104.775,91.7064 107.942,95.373 106,103.5C 102.269,107.05 98.2685,107.383 94,104.5C 91.4548,99.7229 92.2882,95.7229 96.5,92.5 Z"/></g>
<g><path style="opacity:1" fill="#fff" d="M 143.5,96.5 C 152.86,97.0204 156.027,101.687 153,110.5C 148.855,113.979 144.522,114.312 140,111.5C 132.251,115.623 124.751,120.123 117.5,125C 115.833,125.667 114.167,125.667 112.5,125C 109.167,123 105.833,121 102.5,119C 100.664,116.507 99.6644,113.674 99.5,110.5C 101.677,110.414 103.677,109.747 105.5,108.5C 106.812,115.12 110.812,117.62 117.5,116C 123.5,112.667 129.5,109.333 135.5,106C 137.283,102.054 139.949,98.8872 143.5,96.5 Z"/></g>
<g><path style="opacity:1" fill="#1b1516" d="M 143.5,99.5 C 151.303,99.7887 153.303,103.289 149.5,110C 140.051,110.866 138.051,107.366 143.5,99.5 Z"/></g>
<g><path style="opacity:1" fill="#fff" d="M 59.5,103.5 C 60.5,103.5 61.5,103.5 62.5,103.5C 62.5,112.5 62.5,121.5 62.5,130.5C 59.6755,130.919 57.5088,129.919 56,127.5C 55.3333,120.5 55.3333,113.5 56,106.5C 57.5185,105.837 58.6851,104.837 59.5,103.5 Z"/></g>
<g><path style="opacity:1" fill="#fff" d="M 89.5,104.5 C 90.9314,106.437 92.5981,108.27 94.5,110C 91.6819,113.338 90.8485,117.171 92,121.5C 98.2455,126.041 104.745,130.208 111.5,134C 116.095,132.717 120.429,133.384 124.5,136C 129.102,145.815 126.102,150.815 115.5,151C 111.816,148.483 109.483,144.983 108.5,140.5C 100.667,136.084 93.0001,131.418 85.5,126.5C 84.3791,120.886 84.2124,115.22 85,109.5C 86.7073,107.963 88.2073,106.296 89.5,104.5 Z"/></g>
<g><path style="opacity:1" fill="#fff" d="M 143.5,116.5 C 144.725,117.152 145.392,118.319 145.5,120C 145.717,123.235 144.383,125.568 141.5,127C 137.993,129.254 134.327,131.254 130.5,133C 127.653,133.944 125.153,133.444 123,131.5C 122.316,130.216 122.483,129.049 123.5,128C 130.393,124.392 137.059,120.559 143.5,116.5 Z"/></g>
<g><path style="opacity:1" fill="#161313" d="M 69.5,132.5 C 76.0001,131.499 78.5001,134.165 77,140.5C 74,144.5 71,144.5 68,140.5C 67.1093,137.502 67.6093,134.836 69.5,132.5 Z"/></g>
<g><path style="opacity:1" fill="#fff" d="M 83.5,134.5 C 84.8734,134.343 86.2068,134.51 87.5,135C 93.8333,138.833 100.167,142.667 106.5,146.5C 107.521,147.002 107.688,147.668 107,148.5C 105.53,150.152 103.697,151.152 101.5,151.5C 95.297,148.815 89.4637,145.482 84,141.5C 83.5034,139.19 83.3367,136.857 83.5,134.5 Z"/></g>
<g><path style="opacity:1" fill="#1a1516" d="M 116.5,136.5 C 123.57,137.407 125.237,140.907 121.5,147C 115.662,148.48 112.829,146.313 113,140.5C 113.69,138.65 114.856,137.316 116.5,136.5 Z"/></g>
</svg>
